<svg width="77" height="25" viewBox="0 0 77 25" fill="none" xmlns="http://www.w3.org/2000/svg">
<path d="M19.4349 2.2806C19.5773 3.38598 19.6604 4.67559 19.6841 6.14942C19.7078 7.60023 19.6841 9.07407 19.6129 10.5709C19.5654 12.0448 19.4586 13.4495 19.2925 14.7852C19.1264 16.0978 18.9247 17.1571 18.6874 17.9631C18.5213 18.4468 18.3196 18.9534 18.0823 19.483C17.8687 19.9897 17.6314 20.4502 17.3704 20.8648C16.9907 21.4865 16.528 22.0392 15.9822 22.5228C15.4364 22.9834 14.8313 23.3864 14.1668 23.7318C13.5261 24.0542 12.838 24.3076 12.1023 24.4918C11.3904 24.676 10.6785 24.7796 9.96662 24.8027C8.70893 24.8487 7.51056 24.676 6.37152 24.2845C5.25621 23.87 4.22395 23.2252 3.27475 22.3501C2.56285 21.6823 1.99332 20.9684 1.56618 20.2084C1.13904 19.4485 0.806822 18.654 0.569521 17.825C0.332221 16.9729 0.177975 16.0978 0.106785 15.1997C0.0593251 14.3016 0.035595 13.3804 0.035595 12.4363C0.035595 11.9987 0.02373 11.4575 0 10.8127C0 10.1449 0 9.46556 0 8.7747C0 8.06081 0 7.36995 0 6.70211C0 6.03428 0.011865 5.47008 0.035595 5.0095C0.035595 4.71013 0.035595 4.38773 0.035595 4.0423C0.035595 3.67384 0.0474601 3.31689 0.0711902 2.97146C0.11865 2.603 0.18984 2.25757 0.284761 1.93517C0.379681 1.58974 0.522061 1.27885 0.711902 1.00251C0.925472 0.703136 1.2221 0.484364 1.60178 0.34619C1.98146 0.208019 2.37301 0.138933 2.77642 0.138933C3.20356 0.138933 3.60697 0.219533 3.98665 0.380735C4.36633 0.541935 4.67482 0.772222 4.91212 1.0716C5.03077 1.25583 5.11383 1.44005 5.16129 1.62428C5.20875 1.80851 5.24434 2.01577 5.26807 2.24606C5.31553 3.00601 5.33926 3.86958 5.33926 4.83679C5.36299 5.80399 5.36299 6.74817 5.33926 7.66932C5.33926 8.56744 5.3274 9.39647 5.30367 10.1564C5.27994 10.9164 5.26807 11.4806 5.26807 11.849C5.26807 13.2307 5.33926 14.4858 5.48164 15.6142C5.62402 16.7196 5.95624 17.6407 6.4783 18.3777C6.95291 19.0455 7.51056 19.4715 8.15127 19.6558C8.79199 19.84 9.4327 19.8976 10.0734 19.8285C10.6667 19.7594 11.2599 19.5521 11.8532 19.2067C12.4701 18.8382 12.9566 18.3086 13.3126 17.6177C13.4549 17.3644 13.5736 17.0765 13.6685 16.7541C13.7634 16.4317 13.8346 16.1324 13.8821 15.856C13.977 14.9809 14.0601 13.9677 14.1312 12.8162C14.2024 11.6418 14.2618 10.4443 14.3092 9.22376C14.3567 8.00324 14.3804 6.80574 14.3804 5.63128C14.3804 4.45681 14.3685 3.39749 14.3448 2.45332C14.3923 2.0388 14.5228 1.65883 14.7364 1.3134C14.9262 1.01402 15.1991 0.749194 15.5551 0.518905C15.911 0.288619 16.3975 0.173475 17.0144 0.173475C17.5128 0.196504 17.9162 0.323162 18.2247 0.55345C18.5332 0.760709 18.7823 0.990995 18.9722 1.24431C19.1857 1.54368 19.34 1.88911 19.4349 2.2806Z" fill="white"/>
<path d="M22.2423 2.01678C22.2423 1.86739 22.2808 1.73045 22.3577 1.60595C22.4347 1.47316 22.5416 1.36112 22.6785 1.26982C22.8153 1.17023 22.9735 1.09138 23.1531 1.03329C23.3413 0.975191 23.538 0.946143 23.7432 0.946143C24.1452 0.946143 24.4402 1.00839 24.6284 1.13288C24.8165 1.25737 24.932 1.45241 24.9747 1.718C25.1201 2.82183 25.2399 3.86757 25.3339 4.85521C25.4366 5.83455 25.5178 6.77239 25.5777 7.66874C25.6375 8.55678 25.6803 9.41163 25.706 10.2333C25.7316 11.0466 25.7444 11.8351 25.7444 12.5986C25.7444 13.0136 25.5905 13.3248 25.2826 13.5323C24.9833 13.7398 24.5429 13.8436 23.9613 13.8436C23.6962 13.8436 23.4866 13.7813 23.3327 13.6568C23.1873 13.5406 23.1146 13.3663 23.1146 13.134C23.1146 11.7064 23.0676 10.3702 22.9735 9.1253C22.888 7.87208 22.7896 6.75994 22.6785 5.7889C22.5673 4.81786 22.4647 4.00866 22.3706 3.3613C22.2851 2.70564 22.2423 2.25746 22.2423 2.01678Z" fill="white"/>
<path d="M32.2356 13.3954C32.0475 13.8353 31.761 14.0552 31.3761 14.0552C31.2222 14.0552 31.0469 14.0137 30.8501 13.9307L30.5038 13.7689C30.0847 13.5697 29.8752 13.2916 29.8752 12.9348C29.8752 12.7522 29.9094 12.582 29.9778 12.4243C30.2429 11.8185 30.5294 11.1919 30.8373 10.5445C31.1452 9.88885 31.4702 9.22074 31.8123 8.54018C31.8379 8.47379 31.8636 8.41154 31.8892 8.35345C31.9149 8.29535 31.9277 8.2414 31.9277 8.19161C31.9277 7.99242 31.8208 7.81398 31.607 7.65629C30.8886 7.13342 30.1745 6.61055 29.4647 6.08768C28.7634 5.55651 28.0493 5.03365 27.3223 4.51908C27.0059 4.30329 26.8477 4.05431 26.8477 3.77212C26.8477 3.65593 26.8691 3.54389 26.9118 3.43599C26.9546 3.3198 27.0316 3.20361 27.1427 3.08741L27.5019 2.67659C27.75 2.39441 28.0236 2.25331 28.323 2.25331C28.4256 2.25331 28.5282 2.27821 28.6308 2.32801C28.742 2.36951 28.8575 2.4276 28.9772 2.5023C29.6101 2.95047 30.2344 3.39864 30.8501 3.84682C31.4745 4.28669 32.0945 4.73901 32.7103 5.20379C32.7872 5.25358 32.8599 5.29508 32.9283 5.32828C32.9968 5.36148 33.0652 5.37808 33.1336 5.37808C33.3218 5.37808 33.4885 5.26188 33.6339 5.0295C34.0444 4.25764 34.4678 3.49409 34.9039 2.73883C35.3401 1.98358 35.7891 1.24078 36.2509 0.510419C36.4818 0.17014 36.7555 0 37.0719 0C37.2515 0 37.461 0.0705457 37.7005 0.211637L37.9058 0.33613C38.2564 0.560216 38.4317 0.82165 38.4317 1.12043C38.4317 1.22833 38.4146 1.33622 38.3804 1.44411C38.3462 1.54371 38.2949 1.6516 38.2265 1.76779C37.7219 2.54795 37.243 3.3364 36.7897 4.13315C36.3364 4.9299 35.896 5.7391 35.4684 6.56075C35.4427 6.62715 35.4171 6.68525 35.3914 6.73504C35.3743 6.78484 35.3657 6.83464 35.3657 6.88443C35.3657 7.09192 35.4684 7.27036 35.6736 7.41975C36.6657 8.16671 37.6492 8.91781 38.6242 9.67307C39.5991 10.42 40.5784 11.1587 41.5619 11.889C41.8612 12.1131 42.0109 12.358 42.0109 12.6235C42.0109 12.8725 41.8783 13.1091 41.6132 13.3331L41.1642 13.7191C40.9162 13.9432 40.6639 14.0552 40.4073 14.0552C40.1764 14.0552 39.9412 13.9598 39.7017 13.7689L34.6217 9.92205C34.5447 9.87225 34.472 9.83076 34.4036 9.79756C34.3437 9.76436 34.2796 9.74776 34.2112 9.74776C34.0059 9.74776 33.8392 9.87225 33.7109 10.1212L32.2356 13.3954Z" fill="white"/>
<path d="M30.0183 22.5235C30.1431 22.7938 30.1479 23.0595 30.0327 23.3204C29.9174 23.5721 29.7349 23.8051 29.4852 24.0195C29.2355 24.2339 28.9473 24.4203 28.6208 24.5788C28.3038 24.7373 28.0012 24.8491 27.7131 24.9144C27.3961 24.9796 27.0599 25.0076 26.7045 24.9983C26.3588 24.9983 26.0082 24.9563 25.6528 24.8724C25.307 24.7978 24.966 24.686 24.6299 24.5369C24.3033 24.3784 24.0007 24.1873 23.7222 23.9636C23.386 23.6933 23.1219 23.3717 22.9298 22.9989C22.7473 22.6167 22.6128 22.2112 22.5264 21.7825C22.4399 21.3537 22.3919 20.9249 22.3823 20.4961C22.3823 20.058 22.3967 19.6479 22.4255 19.2658C22.4543 18.9209 22.5264 18.562 22.6416 18.1892C22.7569 17.8163 22.9154 17.4528 23.1171 17.0986C23.3284 16.7351 23.5781 16.3995 23.8663 16.0919C24.164 15.7843 24.5098 15.5233 24.9036 15.3089C25.2014 15.1411 25.5327 15.0293 25.8977 14.9734C26.2723 14.9081 26.6469 14.8941 27.0215 14.9314C27.4057 14.9594 27.7659 15.0386 28.1021 15.1691C28.4479 15.2903 28.7408 15.4581 28.9809 15.6724C29.1346 15.8029 29.2931 15.9847 29.4564 16.2177C29.6293 16.4508 29.7541 16.6885 29.831 16.9308C29.9078 17.1732 29.9078 17.4015 29.831 17.6159C29.7637 17.821 29.5716 17.9608 29.2547 18.0354C29.1202 18.0726 29.0001 18.082 28.8945 18.0633C28.7888 18.0354 28.6928 17.9934 28.6063 17.9375C28.5199 17.8722 28.4383 17.7977 28.3614 17.7138C28.2846 17.6299 28.2125 17.546 28.1453 17.4621C27.9148 17.1918 27.6458 17.01 27.3385 16.9168C27.0311 16.8143 26.7238 16.791 26.4164 16.8469C26.1186 16.8935 25.8353 17.0147 25.5664 17.2104C25.307 17.3969 25.1053 17.6392 24.9612 17.9375C24.8076 18.2544 24.6827 18.6039 24.5866 18.9861C24.5002 19.359 24.4522 19.7411 24.4426 20.1326C24.433 20.5148 24.4666 20.8876 24.5434 21.2512C24.6299 21.6147 24.7739 21.9363 24.9756 22.2159C25.1293 22.4396 25.3166 22.6214 25.5375 22.7612C25.7681 22.901 26.013 22.9989 26.2723 23.0548C26.5317 23.1107 26.791 23.12 27.0503 23.0828C27.3193 23.0455 27.5786 22.9616 27.8283 22.8311C27.9052 22.7938 27.9868 22.7425 28.0733 22.6773C28.1693 22.6027 28.2654 22.5281 28.3614 22.4536C28.4575 22.379 28.5535 22.3091 28.6496 22.2439C28.7552 22.1786 28.8657 22.132 28.9809 22.104C29.1538 22.0481 29.3411 22.0528 29.5428 22.118C29.7541 22.1833 29.9126 22.3184 30.0183 22.5235Z" fill="white"/>
<path d="M33.1903 23.7539C33.1807 23.8005 33.1711 23.8471 33.1615 23.8937C33.1615 23.931 33.1615 23.9729 33.1615 24.0195L33.075 24.3131C33.0558 24.3504 33.0414 24.3737 33.0318 24.3831L32.9886 24.4669C32.9406 24.5695 32.8541 24.6534 32.7293 24.7186C32.4987 24.8305 32.2538 24.8584 31.9945 24.8025C31.8312 24.7839 31.7015 24.7373 31.6055 24.6627C31.5094 24.5974 31.4422 24.5182 31.4038 24.425C31.3653 24.3318 31.3365 24.2386 31.3173 24.1454C31.2885 24.0522 31.2741 23.9683 31.2741 23.8937V16.0639C31.2741 15.9987 31.2741 15.9428 31.2741 15.8962C31.2837 15.8402 31.2933 15.789 31.3029 15.7424C31.3125 15.6771 31.3221 15.6212 31.3317 15.5746C31.3509 15.528 31.3701 15.4767 31.3894 15.4208C31.4182 15.3276 31.471 15.253 31.5478 15.1971C31.6631 15.1132 31.7736 15.0666 31.8792 15.0573C31.9465 15.0386 32.0089 15.0293 32.0665 15.0293C32.1241 15.02 32.1914 15.0153 32.2682 15.0153C32.4027 15.0153 32.5564 15.0526 32.7293 15.1272C32.8637 15.2017 32.9598 15.3043 33.0174 15.4348C33.1135 15.6212 33.1615 15.7936 33.1615 15.9521C33.1711 16.0453 33.1759 16.1851 33.1759 16.3715C33.1855 16.558 33.1903 16.6978 33.1903 16.791V16.8469C33.2095 17.1452 33.2191 17.4341 33.2191 17.7138C33.2191 17.9841 33.2143 18.2824 33.2047 18.6086C33.2047 18.9255 33.1999 19.2331 33.1903 19.5314C33.1903 19.8204 33.1903 20.1093 33.1903 20.3983V23.3344C33.1903 23.3717 33.1903 23.409 33.1903 23.4463C33.1999 23.4742 33.2047 23.5069 33.2047 23.5442C33.2047 23.6374 33.1999 23.7073 33.1903 23.7539Z" fill="white"/>
<path d="M36.0551 18.9861C36.3433 18.8463 36.6459 18.7484 36.9628 18.6925C37.2798 18.6273 37.5919 18.6133 37.8993 18.6506C38.2163 18.6785 38.5188 18.7577 38.807 18.8882C39.0951 19.0094 39.3641 19.1865 39.6138 19.4195C39.8635 19.6619 40.0556 19.9275 40.1901 20.2165C40.3246 20.5055 40.4206 20.827 40.4783 21.1812C40.5167 21.4236 40.5791 21.6473 40.6656 21.8524C40.752 22.0574 40.8433 22.2625 40.9393 22.4676C41.045 22.6726 41.141 22.8777 41.2275 23.0828C41.3235 23.2878 41.4003 23.5022 41.458 23.7259C41.506 23.9403 41.4868 24.15 41.4003 24.3551C41.3235 24.5508 41.1602 24.672 40.9105 24.7186C40.7664 24.7466 40.6271 24.7373 40.4927 24.6907C40.3678 24.6347 40.2525 24.5602 40.1469 24.4669C40.0412 24.3644 39.9452 24.2572 39.8587 24.1454C39.7819 24.0242 39.7099 23.9123 39.6426 23.8098C39.4217 24.0894 39.1816 24.3085 38.9222 24.4669C38.6629 24.6161 38.3507 24.714 37.9858 24.7606C37.6784 24.7978 37.3854 24.8072 37.1069 24.7885C36.8284 24.7699 36.5306 24.7186 36.2136 24.6347C35.8006 24.5322 35.4596 24.3551 35.1907 24.1034C34.9314 23.8424 34.7297 23.5442 34.5856 23.2086C34.4511 22.8637 34.3791 22.4955 34.3695 22.104C34.3599 21.7125 34.4079 21.3257 34.5135 20.9436C34.648 20.4402 34.8497 20.0301 35.1187 19.7132C35.3876 19.3962 35.6998 19.1539 36.0551 18.9861ZM36.4153 20.622C36.2809 20.7525 36.1752 20.9063 36.0984 21.0834C36.0215 21.2605 35.9735 21.4469 35.9543 21.6426C35.9447 21.8384 35.9639 22.0341 36.0119 22.2299C36.06 22.4256 36.1368 22.5981 36.2424 22.7472C36.3385 22.8777 36.5018 22.9895 36.7323 23.0828C36.9628 23.1666 37.2029 23.2179 37.4527 23.2366C37.7408 23.2552 37.9906 23.1806 38.2019 23.0128C38.4228 22.8451 38.5861 22.6353 38.6917 22.3837C38.807 22.1227 38.8598 21.8477 38.8502 21.5588C38.8406 21.2605 38.759 20.9902 38.6053 20.7478C38.49 20.5707 38.3363 20.4402 38.1442 20.3563C37.9617 20.2724 37.7648 20.2305 37.5535 20.2305C37.3422 20.2212 37.1309 20.2538 36.9196 20.3284C36.7179 20.3936 36.5498 20.4915 36.4153 20.622Z" fill="white"/>
<path d="M46.1 22.4116C45.9175 22.2998 45.711 22.2112 45.4805 22.146C45.2596 22.0807 45.0291 22.0201 44.7889 21.9642C44.5584 21.9083 44.3327 21.8477 44.1118 21.7825C43.8909 21.7079 43.6892 21.6054 43.5067 21.4749C43.1129 21.1859 42.8823 20.8317 42.8151 20.4123C42.7575 19.9835 42.8535 19.5547 43.1032 19.1259C43.2377 18.9022 43.4154 18.7205 43.6363 18.5806C43.8572 18.4315 44.0974 18.3197 44.3567 18.2451C44.6256 18.1612 44.8994 18.1146 45.1779 18.1053C45.4565 18.0959 45.7206 18.1099 45.9703 18.1472C46.1336 18.1752 46.3065 18.2171 46.489 18.273C46.6715 18.3197 46.8396 18.3849 46.9933 18.4688C47.1566 18.5527 47.3006 18.6599 47.4255 18.7904C47.56 18.9115 47.656 19.0653 47.7137 19.2518C47.7521 19.3729 47.7569 19.4895 47.7281 19.6013C47.7089 19.7132 47.6608 19.8064 47.584 19.8809C47.5168 19.9555 47.4255 20.0114 47.3102 20.0487C47.2046 20.086 47.0893 20.0953 46.9645 20.0767C46.8204 20.0487 46.6859 20.0068 46.5611 19.9509C46.4362 19.8949 46.3113 19.8343 46.1865 19.7691C46.0616 19.7038 45.9319 19.6479 45.7975 19.6013C45.6726 19.5547 45.5381 19.5314 45.394 19.5314C45.1731 19.5221 44.9906 19.5594 44.8466 19.6433C44.7025 19.7271 44.6016 19.8297 44.544 19.9509C44.496 20.072 44.5008 20.2025 44.5584 20.3423C44.6256 20.4822 44.7601 20.6033 44.9618 20.7059C45.1443 20.7991 45.346 20.8736 45.5669 20.9296C45.7878 20.9855 46.004 21.0414 46.2153 21.0974C46.4362 21.1533 46.6475 21.2185 46.8492 21.2931C47.0605 21.3677 47.2478 21.4702 47.4111 21.6007C47.7281 21.8524 47.9202 22.146 47.9874 22.4815C48.0642 22.8171 48.045 23.148 47.9298 23.4742C47.8145 23.8005 47.6128 24.0894 47.3246 24.3411C47.0461 24.5928 46.7147 24.7606 46.3305 24.8445C46.052 24.9004 45.7494 24.9283 45.4229 24.9283C45.1059 24.9283 44.7889 24.8957 44.472 24.8305C44.1646 24.7652 43.8668 24.6627 43.5787 24.5229C43.3001 24.3831 43.0648 24.206 42.8727 23.9916C42.7383 23.8424 42.6662 23.6747 42.6566 23.4882C42.6566 23.2925 42.695 23.1247 42.7719 22.9849C42.8583 22.8357 42.9784 22.7332 43.1321 22.6773C43.2857 22.6214 43.4586 22.654 43.6507 22.7752C43.8044 22.8777 43.9869 22.9802 44.1982 23.0828C44.4095 23.176 44.6208 23.2505 44.8321 23.3065C45.0435 23.3624 45.2452 23.3904 45.4373 23.3904C45.639 23.3904 45.8119 23.3484 45.9559 23.2645C46.1672 23.134 46.2777 22.9849 46.2873 22.8171C46.2969 22.64 46.2345 22.5048 46.1 22.4116Z" fill="white"/>
<path d="M52.6425 22.4116C52.46 22.2998 52.2535 22.2112 52.023 22.146C51.8021 22.0807 51.5715 22.0201 51.3314 21.9642C51.1009 21.9083 50.8752 21.8477 50.6543 21.7825C50.4333 21.7079 50.2316 21.6054 50.0491 21.4749C49.6553 21.1859 49.4248 20.8317 49.3576 20.4123C49.2999 19.9835 49.396 19.5547 49.6457 19.1259C49.7802 18.9022 49.9579 18.7205 50.1788 18.5806C50.3997 18.4315 50.6398 18.3197 50.8992 18.2451C51.1681 18.1612 51.4419 18.1146 51.7204 18.1053C51.999 18.0959 52.2631 18.1099 52.5128 18.1472C52.6761 18.1752 52.849 18.2171 53.0315 18.273C53.214 18.3197 53.3821 18.3849 53.5358 18.4688C53.6991 18.5527 53.8431 18.6599 53.968 18.7904C54.1025 18.9115 54.1985 19.0653 54.2561 19.2518C54.2946 19.3729 54.2994 19.4895 54.2705 19.6013C54.2513 19.7132 54.2033 19.8064 54.1265 19.8809C54.0592 19.9555 53.968 20.0114 53.8527 20.0487C53.7471 20.086 53.6318 20.0953 53.507 20.0767C53.3629 20.0487 53.2284 20.0068 53.1035 19.9509C52.9787 19.8949 52.8538 19.8343 52.7289 19.7691C52.6041 19.7038 52.4744 19.6479 52.3399 19.6013C52.2151 19.5547 52.0806 19.5314 51.9365 19.5314C51.7156 19.5221 51.5331 19.5594 51.389 19.6433C51.245 19.7271 51.1441 19.8297 51.0865 19.9509C51.0385 20.072 51.0433 20.2025 51.1009 20.3423C51.1681 20.4822 51.3026 20.6033 51.5043 20.7059C51.6868 20.7991 51.8885 20.8736 52.1094 20.9296C52.3303 20.9855 52.5464 21.0414 52.7578 21.0974C52.9787 21.1533 53.19 21.2185 53.3917 21.2931C53.603 21.3677 53.7903 21.4702 53.9536 21.6007C54.2705 21.8524 54.4626 22.146 54.5299 22.4815C54.6067 22.8171 54.5875 23.148 54.4723 23.4742C54.357 23.8005 54.1553 24.0894 53.8671 24.3411C53.5886 24.5928 53.2572 24.7606 52.873 24.8445C52.5945 24.9004 52.2919 24.9283 51.9653 24.9283C51.6484 24.9283 51.3314 24.8957 51.0144 24.8305C50.7071 24.7652 50.4093 24.6627 50.1212 24.5229C49.8426 24.3831 49.6073 24.206 49.4152 23.9916C49.2807 23.8424 49.2087 23.6747 49.1991 23.4882C49.1991 23.2925 49.2375 23.1247 49.3144 22.9849C49.4008 22.8357 49.5209 22.7332 49.6745 22.6773C49.8282 22.6214 50.0011 22.654 50.1932 22.7752C50.3469 22.8777 50.5294 22.9802 50.7407 23.0828C50.952 23.176 51.1633 23.2505 51.3746 23.3065C51.5859 23.3624 51.7877 23.3904 51.9798 23.3904C52.1815 23.3904 52.3543 23.3484 52.4984 23.2645C52.7097 23.134 52.8202 22.9849 52.8298 22.8171C52.8394 22.64 52.777 22.5048 52.6425 22.4116Z" fill="white"/>
<path d="M57.5569 19.5733C57.5569 19.8343 57.5569 20.128 57.5569 20.4542C57.5665 20.7804 57.5713 21.1207 57.5713 21.4749C57.5713 21.8197 57.5713 22.1646 57.5713 22.5095C57.5713 22.8451 57.5665 23.1573 57.5569 23.4463C57.5473 23.5861 57.5329 23.7399 57.5137 23.9077C57.4945 24.0661 57.4561 24.2153 57.3984 24.3551C57.3408 24.4949 57.2496 24.6114 57.1247 24.7046C57.0094 24.7885 56.851 24.8258 56.6493 24.8165C56.3515 24.7978 56.1354 24.672 56.0009 24.439C55.876 24.206 55.804 23.8797 55.7848 23.4603C55.7848 23.2459 55.78 22.9989 55.7704 22.7192C55.7704 22.4396 55.7656 22.1553 55.756 21.8663C55.756 21.5774 55.756 21.2978 55.756 21.0274C55.756 20.7478 55.756 20.4961 55.756 20.2724C55.756 20.1419 55.7512 19.9835 55.7416 19.7971C55.7416 19.6106 55.7464 19.4195 55.756 19.2238C55.7656 19.0281 55.7896 18.8416 55.828 18.6645C55.8664 18.4781 55.9289 18.3243 56.0153 18.2031C56.0826 18.1286 56.1786 18.0726 56.3035 18.0354C56.4283 17.9888 56.558 17.9655 56.6925 17.9655C56.8366 17.9655 56.971 17.9888 57.0959 18.0354C57.2304 18.082 57.3264 18.1472 57.384 18.2311C57.4225 18.287 57.4513 18.3663 57.4705 18.4688C57.4897 18.5713 57.5041 18.6878 57.5137 18.8183C57.5329 18.9395 57.5425 19.07 57.5425 19.2098C57.5521 19.3403 57.5569 19.4615 57.5569 19.5733ZM57.0094 16.749C56.7117 16.8236 56.462 16.7956 56.2603 16.6652C56.0681 16.5253 55.9481 16.3203 55.9001 16.05C55.8616 15.8542 55.876 15.6818 55.9433 15.5326C56.0105 15.3835 56.1114 15.2716 56.2458 15.1971C56.3803 15.1132 56.534 15.0759 56.7069 15.0852C56.8798 15.0945 57.0527 15.1598 57.2256 15.281C57.3888 15.3928 57.5041 15.5233 57.5713 15.6724C57.6482 15.8216 57.6722 15.9661 57.6434 16.1059C57.6242 16.2457 57.5617 16.3762 57.4561 16.4974C57.3504 16.6092 57.2015 16.6931 57.0094 16.749Z" fill="white"/>
<path d="M62.9578 18.9582C63.1211 19.0048 63.2268 19.0933 63.2748 19.2238C63.3228 19.345 63.3372 19.4755 63.318 19.6153C63.2604 19.9042 63.0971 20.0813 62.8282 20.1466C62.6745 20.1839 62.516 20.2025 62.3527 20.2025C62.199 20.2025 62.0406 20.2072 61.8773 20.2165V23.4463C61.8773 23.67 61.8629 23.8984 61.834 24.1314C61.834 24.2153 61.81 24.3038 61.762 24.397C61.7428 24.4436 61.7284 24.4716 61.7188 24.4809C61.7188 24.4996 61.7092 24.5275 61.69 24.5648C61.6323 24.6674 61.5555 24.7512 61.4595 24.8165C61.2481 24.9283 61.0224 24.9563 60.7823 24.9004C60.6382 24.8724 60.5278 24.8258 60.4509 24.7606C60.3645 24.6953 60.302 24.6161 60.2636 24.5229C60.2444 24.4763 60.23 24.4297 60.2204 24.3831C60.2108 24.3365 60.1964 24.2898 60.1772 24.2432C60.1676 24.1966 60.158 24.1547 60.1484 24.1174C60.1484 24.0708 60.1484 24.0335 60.1484 24.0056V23.1946C60.1484 22.7099 60.1484 22.2066 60.1484 21.6846C60.158 21.1626 60.1628 20.6593 60.1628 20.1746C59.9419 20.1652 59.7113 20.1606 59.4712 20.1606C59.2407 20.1513 59.0726 20.0953 58.9669 19.9928C58.9093 19.9369 58.8709 19.867 58.8517 19.7831C58.8325 19.6899 58.8229 19.5966 58.8229 19.5034C58.8325 19.4102 58.8517 19.3263 58.8805 19.2518C58.9093 19.1679 58.9477 19.1073 58.9958 19.07C59.1206 18.9582 59.2311 18.8976 59.3271 18.8882C59.4328 18.8696 59.5625 18.8556 59.7161 18.8463C59.7354 18.8463 59.7978 18.8463 59.9034 18.8463C60.0187 18.837 60.0907 18.8323 60.1196 18.8323C60.1292 18.5154 60.1388 18.1985 60.1484 17.8816C60.158 17.5646 60.1868 17.2757 60.2348 17.0147C60.2924 16.7444 60.3741 16.5114 60.4797 16.3156C60.595 16.1105 60.7679 15.9567 60.9984 15.8542C61.277 15.733 61.5939 15.6585 61.9493 15.6305C62.3047 15.6025 62.6265 15.6445 62.9146 15.7563C63.0491 15.8029 63.1788 15.8962 63.3036 16.036C63.4381 16.1758 63.5005 16.3296 63.4909 16.4974C63.4813 16.6652 63.4477 16.819 63.3901 16.9588C63.3324 17.0986 63.2076 17.1918 63.0155 17.2384C62.929 17.257 62.8378 17.2664 62.7417 17.2664C62.6553 17.257 62.564 17.2524 62.468 17.2524C62.3719 17.2524 62.2807 17.2664 62.1942 17.2943C62.1174 17.313 62.0502 17.3549 61.9925 17.4202C61.9445 17.4761 61.9109 17.5507 61.8917 17.6439C61.8821 17.7371 61.8725 17.835 61.8629 17.9375C61.8533 18.04 61.8485 18.1426 61.8485 18.2451C61.8581 18.3383 61.8629 18.4175 61.8629 18.4828V18.8323C62.0838 18.851 62.2855 18.8649 62.468 18.8743C62.6601 18.8836 62.8234 18.9115 62.9578 18.9582Z" fill="white"/>
<path d="M69.0278 22.9569C69.1431 22.929 69.2583 22.9103 69.3736 22.901C69.4984 22.8917 69.6089 22.9057 69.705 22.9429C69.8106 22.9802 69.8971 23.0455 69.9643 23.1387C70.0315 23.2226 70.0651 23.3438 70.0651 23.5022C70.0651 23.6141 70.0363 23.7213 69.9787 23.8238C69.9211 23.9263 69.849 24.0195 69.7626 24.1034C69.6761 24.1873 69.5801 24.2619 69.4744 24.3271C69.3688 24.3831 69.2679 24.4297 69.1719 24.4669C68.8933 24.5881 68.5716 24.6813 68.2066 24.7466C67.8512 24.8118 67.4814 24.8351 67.0972 24.8165C66.5785 24.7978 66.0791 24.7 65.5988 24.5229C65.1282 24.3365 64.7584 24.0335 64.4894 23.6141C64.2397 23.2039 64.0908 22.7472 64.0428 22.2439C63.9948 21.7405 64.0188 21.2651 64.1148 20.8177C64.2205 20.2771 64.3982 19.839 64.6479 19.5034C64.9072 19.1586 65.2146 18.8836 65.57 18.6785C66.0022 18.4362 66.4873 18.3103 67.0251 18.301C67.563 18.2917 68.0769 18.3942 68.5668 18.6086C68.8933 18.7484 69.1863 18.9395 69.4456 19.1819C69.7049 19.4149 69.9019 19.6992 70.0363 20.0347C70.0747 20.1186 70.1036 20.2212 70.1228 20.3423C70.1516 20.4635 70.1708 20.594 70.1804 20.7338C70.19 20.8643 70.19 20.9948 70.1804 21.1253C70.1708 21.2558 70.1468 21.3723 70.1084 21.4749C70.0507 21.6426 69.9787 21.7731 69.8923 21.8663C69.8058 21.9596 69.6954 22.0295 69.5609 22.0761C69.4264 22.1227 69.2631 22.1553 69.071 22.1739C68.8885 22.1833 68.6676 22.1926 68.4083 22.2019C68.1778 22.2112 67.9616 22.2159 67.7599 22.2159C67.5582 22.2159 67.3517 22.2159 67.1404 22.2159C66.9291 22.2066 66.7082 22.2019 66.4777 22.2019C66.2568 22.1926 66.007 22.1833 65.7285 22.1739C65.6997 22.3604 65.7237 22.5235 65.8005 22.6633C65.887 22.7938 66.0022 22.9057 66.1463 22.9989C66.2904 23.0828 66.4537 23.148 66.6361 23.1946C66.8186 23.2412 66.9963 23.2692 67.1692 23.2785C67.4958 23.2971 67.808 23.2738 68.1057 23.2086C68.4035 23.134 68.7108 23.0501 69.0278 22.9569ZM68.4083 20.2445C68.2258 20.0394 68.0337 19.8903 67.832 19.7971C67.6783 19.7318 67.515 19.7038 67.3421 19.7132C67.1788 19.7132 67.0203 19.7365 66.8667 19.7831C66.5881 19.8483 66.3528 19.9881 66.1607 20.2025C66.1415 20.2212 66.1079 20.2678 66.0598 20.3423C66.0118 20.4076 65.9638 20.4775 65.9158 20.5521C65.8773 20.6266 65.8485 20.6965 65.8293 20.7618C65.8101 20.827 65.8197 20.8597 65.8581 20.8597H68.682C68.6724 20.7292 68.6484 20.622 68.61 20.5381C68.5716 20.4449 68.5043 20.347 68.4083 20.2445Z" fill="white"/>
<path d="M75.8402 15.0992C76.0227 15.0526 76.1812 15.0479 76.3156 15.0852C76.4597 15.1132 76.5798 15.1738 76.6758 15.267C76.7815 15.3602 76.8583 15.4767 76.9064 15.6165C76.964 15.7563 76.9928 15.9101 76.9928 16.0779C77.0024 16.544 77.0024 16.9075 76.9928 17.1685C76.9928 17.4295 76.9928 17.6579 76.9928 17.8536V22.146C76.9928 22.6493 76.9928 23.0688 76.9928 23.4043C76.9928 23.7399 76.9736 24.0149 76.9352 24.2293C76.9064 24.4343 76.8487 24.5881 76.7623 24.6907C76.6854 24.7932 76.5654 24.8631 76.4021 24.9004C76.2388 24.947 76.0227 24.9703 75.7538 24.9703C75.4944 24.9703 75.1678 24.9703 74.774 24.9703C73.7367 24.9703 72.9155 24.7326 72.3103 24.2572C71.7148 23.7818 71.3979 23.0268 71.3595 21.9922C71.3402 21.5448 71.3979 21.1346 71.5323 20.7618C71.6668 20.3889 71.8637 20.072 72.1231 19.811C72.392 19.5407 72.7186 19.3357 73.1028 19.1958C73.4966 19.0467 73.9432 18.9768 74.4427 18.9861H75.2351V16.4834C75.2351 16.3342 75.2351 16.1898 75.2351 16.05C75.2351 15.9008 75.2495 15.7657 75.2783 15.6445C75.3071 15.514 75.3647 15.4021 75.4512 15.3089C75.5376 15.2157 75.6673 15.1458 75.8402 15.0992ZM73.3333 22.859C73.535 23.1294 73.9 23.2785 74.4283 23.3065C74.5339 23.3158 74.6348 23.3204 74.7308 23.3204C74.8269 23.3111 74.9133 23.2971 74.9902 23.2785C75.0766 23.2692 75.1582 23.2552 75.2351 23.2366V20.6499C74.8989 20.594 74.5915 20.5614 74.313 20.5521C74.0441 20.5334 73.7751 20.6266 73.5062 20.8317C73.3621 20.9436 73.2516 21.088 73.1748 21.2651C73.098 21.4329 73.0547 21.6147 73.0451 21.8104C73.0355 21.9968 73.0547 22.1833 73.1028 22.3697C73.1508 22.5561 73.2276 22.7192 73.3333 22.859Z" fill="white"/>
</svg>
