<svg width="26" height="32" viewBox="0 0 26 32" fill="none" xmlns="http://www.w3.org/2000/svg">
<path d="M21.4872 17.0261C21.5177 14.6456 22.7912 12.3931 24.8114 11.1462C23.537 9.31893 21.4023 8.16039 19.1814 8.09063C16.8126 7.84102 14.5161 9.51361 13.3091 9.51361C12.0786 9.51361 10.2201 8.11541 8.21879 8.15675C5.61017 8.24136 3.17829 9.73026 1.90915 12.0198C-0.819016 16.7616 1.21595 23.7305 3.8293 27.5634C5.13681 29.4403 6.66492 31.5368 8.66442 31.4625C10.6211 31.381 11.3518 30.2099 13.7136 30.2099C16.0535 30.2099 16.7391 31.4625 18.7792 31.4152C20.8788 31.381 22.2016 29.53 23.4632 27.6353C24.4027 26.298 25.1256 24.8199 25.6052 23.2559C23.1378 22.2083 21.4901 19.7155 21.4872 17.0261Z" fill="#090909"/>
<path d="M17.6338 5.56991C18.7786 4.19029 19.3426 2.41704 19.206 0.626709C17.4571 0.811119 15.8415 1.65026 14.6813 2.97695C13.5467 4.27318 12.9563 6.01524 13.0679 7.73714C14.8175 7.75522 16.5375 6.93882 17.6338 5.56991Z" fill="#090909"/>
</svg>
