<svg width="86" height="26" viewBox="0 0 86 26" fill="none" xmlns="http://www.w3.org/2000/svg">
<path d="M84.3844 2.69708L84.2123 1.47681L83.6429 2.57107C83.0205 3.76482 82.4974 4.83919 82.0737 5.76766L82.0273 5.87377L82.0406 5.98651C82.994 13.149 83.484 18.3418 83.484 21.4256C83.484 21.8302 83.4376 22.4801 83.3515 23.3489L83.3251 23.6075L84.1924 24.0916L84.3844 23.7534C85.457 21.8633 85.9999 20.2186 85.9999 18.8657C85.9999 15.5829 85.4504 10.1447 84.3844 2.69708Z" fill="#013047"/>
<path d="M71.8441 18.972C69.6592 17.6589 68.5667 16.3192 68.5667 14.9464C68.5667 14.3429 69.0434 13.8455 69.9902 13.4609C70.99 13.0762 72.3341 12.8839 74.029 12.8839C75.3003 12.8839 76.7701 13.116 78.4386 13.5869L78.7895 13.2686C77.7765 12.0549 77.0747 11.2989 76.6774 10.9872C75.6777 10.2444 74.4197 9.87302 72.9035 9.87302C70.99 9.87302 69.4274 10.3638 68.2092 11.3453C66.9909 12.3268 66.3884 13.5537 66.3884 15.026C66.3884 16.4718 66.7923 17.8446 67.5934 19.1444H63.1507C56.8674 19.1378 50.5907 19.1378 44.3074 19.1444C41.7517 19.1444 39.1894 19.1444 36.6337 19.1444V19.1245C36.5344 19.1312 36.4417 19.1378 36.349 19.1444C36.1371 19.1444 35.9253 19.1444 35.7134 19.1444C33.0716 18.9985 32.4161 16.936 32.2705 15.5632C32.2638 15.4836 32.2638 15.4107 32.2572 15.3311C32.2572 14.9995 32.2572 14.6679 32.2572 14.3429C32.2572 9.60111 32.2638 4.85266 32.2638 0.11084L29.0394 2.75697C29.0394 6.61675 29.0394 9.76691 29.0394 12.9436C28.5031 16.6044 26.2123 18.9455 24.0538 20.3647C20.9221 22.4206 16.4596 23.9526 12.5267 24.5627L9.83856 25.0933C9.64656 25.1331 9.68628 25.4182 9.87829 25.405C14.9963 25.1132 18.5385 24.7418 20.505 24.2908C23.4712 23.6011 25.7422 22.2482 27.3246 20.2453C27.8808 19.5556 28.4502 18.6537 29.0394 17.5262C29.0394 17.9772 29.0924 18.7598 29.4963 19.6087C30.1782 21.0345 31.6415 22.215 33.1511 22.3742C33.4291 22.4007 33.4225 22.3675 35.7001 22.3742C35.7531 22.3742 36.6271 22.3742 36.6271 22.3742C41.5067 22.3742 46.3864 22.3808 51.2595 22.3808C55.2188 22.3808 59.1782 22.3808 63.1441 22.3808H67.7523C72.2083 22.3808 76.6178 21.5783 80.9877 19.9668L82.2655 16.5911C78.6439 17.6854 75.1678 18.4746 71.8441 18.972Z" fill="#013047"/>
<path d="M15.2016 19.9601C14.619 20.1259 12.1361 20.8024 8.69982 21.26C7.15051 21.4656 6.45531 21.4921 5.69389 21.4192C4.4028 21.2998 3.29047 21.2003 2.52906 20.3713C1.74116 19.5291 1.42336 18.2624 1.78751 16.8498C2.09208 15.6825 2.62175 14.6082 2.96605 13.4343C2.2245 14.1572 1.45646 14.8536 0.893677 15.7356C-1.26476 19.1245 0.681806 23.2363 4.66102 23.6077C7.31603 23.8531 8.42174 23.6011 11.0172 23.1368C12.977 22.7853 18.9623 21.6115 20.419 20.4509C20.7897 20.1591 21.0678 19.8341 21.2532 19.4561C20.3991 19.7545 16.2809 19.6617 15.2016 19.9601Z" fill="#013047"/>
<path d="M22.8554 18.3486C22.9613 18.3287 23.0408 18.3486 23.1003 18.4082C23.1599 18.4746 23.1666 18.5541 23.1136 18.6603C23.0672 18.7398 22.9944 18.8393 22.8951 18.9521C22.7958 19.0648 22.6567 19.1709 22.4912 19.2638C22.3257 19.3632 22.1204 19.4428 21.8755 19.5091C21.6305 19.5755 21.3458 19.6086 21.0214 19.6086C20.5645 19.6086 20.1805 19.5158 19.8759 19.3367C19.5647 19.151 19.3529 18.9454 19.2337 18.7C19.2006 18.6404 19.1609 18.6138 19.1079 18.6205C19.0549 18.6271 19.002 18.6536 18.9688 18.6868C18.949 18.7067 18.8762 18.773 18.7636 18.8725C18.651 18.972 18.4855 19.0847 18.2736 19.1974C18.0618 19.3102 17.8036 19.4163 17.5056 19.5091C17.2077 19.602 16.8634 19.6484 16.4727 19.6484C15.8106 19.6484 15.2479 19.5556 14.7976 19.3699C14.3474 19.1842 13.9832 18.9388 13.6985 18.647C13.4205 18.3486 13.2152 18.017 13.096 17.6456C12.9702 17.2742 12.9106 16.9094 12.9106 16.538C12.9106 15.9478 13.0762 15.4305 13.4072 14.9928C13.7383 14.5485 14.1686 14.2235 14.6983 14.0047C14.983 13.8919 15.281 13.8123 15.5855 13.7659C15.8967 13.7195 16.2013 13.6664 16.5125 13.6134C16.817 13.5603 17.1216 13.494 17.4129 13.4144C17.7109 13.3348 17.9889 13.2088 18.2472 13.0298C18.5252 12.8441 18.7172 12.6053 18.8232 12.3135C18.9291 12.0217 18.9887 11.71 18.9887 11.385C18.9887 11.1463 18.9556 10.9142 18.896 10.6953C18.8298 10.4765 18.7437 10.2842 18.6246 10.1184C18.512 9.95255 18.373 9.81992 18.2207 9.72707C18.0684 9.62759 17.9029 9.58117 17.7241 9.58117C17.4063 9.58117 17.1679 9.66075 17.0157 9.82655C16.8634 9.99235 16.7508 10.1913 16.6647 10.4234C16.5787 10.6555 16.4992 10.8943 16.4264 11.1463C16.3536 11.3983 16.2344 11.6105 16.0689 11.7896C15.9364 11.9289 15.7577 12.035 15.5458 12.1079C15.3339 12.1809 15.1287 12.214 14.9367 12.214C14.738 12.214 14.5593 12.1809 14.4004 12.1146C14.2415 12.0482 14.109 11.9554 13.9965 11.8426C13.8839 11.7299 13.7979 11.5906 13.7449 11.4381C13.6919 11.2856 13.6588 11.1198 13.6588 10.9473C13.6588 10.7152 13.7118 10.4831 13.8243 10.251C13.9369 10.0189 14.1355 9.80665 14.4202 9.62096C14.7049 9.43527 15.0956 9.28273 15.5789 9.16999C16.0622 9.05725 16.678 8.99756 17.4262 8.99756C18.2538 8.99756 18.9622 9.08377 19.5449 9.24957C20.1275 9.41537 20.6109 9.66075 20.975 9.98571C21.3458 10.304 21.6106 10.7086 21.7828 11.1795C21.9483 11.657 22.0344 12.1941 22.0344 12.7976C22.0344 13.5205 22.0145 14.2036 21.9682 14.8403C21.9218 15.4769 21.8887 16.0407 21.8755 16.5314C21.8556 17.0222 21.8688 17.4267 21.9019 17.7451C21.9417 18.0634 22.041 18.2623 22.2131 18.3353C22.286 18.3751 22.3787 18.3883 22.4912 18.3883C22.6104 18.3883 22.7296 18.3751 22.8554 18.3486ZM18.9688 13.3348C18.9688 13.2884 18.949 13.2619 18.9159 13.242C18.8762 13.2287 18.843 13.2354 18.8166 13.2751C18.757 13.3415 18.704 13.4078 18.651 13.4675C18.6047 13.5272 18.5385 13.6001 18.4524 13.6797C18.3134 13.8322 18.1677 13.9715 18.0154 14.0975C17.8631 14.2301 17.7175 14.3628 17.5652 14.4954C17.4129 14.6148 17.2673 14.7342 17.1216 14.8535C16.9759 14.9729 16.8369 15.1056 16.7111 15.2448C16.5191 15.4703 16.3734 15.7157 16.2807 15.981C16.188 16.2462 16.1417 16.5314 16.1417 16.8298C16.1417 17.0288 16.1682 17.2344 16.2344 17.44C16.294 17.6456 16.3867 17.8313 16.5058 17.9904C16.6316 18.1496 16.7839 18.2822 16.9759 18.3817C17.1679 18.4812 17.3931 18.5343 17.6645 18.5343C17.936 18.5343 18.1545 18.4812 18.32 18.3685C18.4855 18.2557 18.6179 18.1231 18.7106 17.9639C18.8033 17.8047 18.8695 17.6456 18.9093 17.4864C18.949 17.3272 18.9622 17.2012 18.9622 17.1084V13.3348H18.9688Z" fill="#219EBC"/>
<path d="M17.4262 9.00407C18.2538 9.00407 18.9622 9.09029 19.5449 9.25609C20.1275 9.42189 20.6109 9.66727 20.975 9.99223C21.3458 10.3106 21.6106 10.7151 21.7828 11.186C21.9483 11.6635 22.0344 12.2007 22.0344 12.8042C22.0344 13.527 22.0145 14.2101 21.9682 14.8468C21.9218 15.4835 21.8887 16.0472 21.8755 16.5379C21.8556 17.0287 21.8688 17.4332 21.9019 17.7516C21.9417 18.0699 22.041 18.2689 22.2131 18.3418C22.2793 18.375 22.3654 18.3949 22.4647 18.3949C22.478 18.3949 22.4846 18.3949 22.4978 18.3949C22.6104 18.3882 22.7296 18.375 22.8554 18.3551C22.8819 18.3484 22.9083 18.3484 22.9348 18.3484C23.001 18.3484 23.0606 18.375 23.107 18.4214C23.1666 18.4877 23.1732 18.5673 23.1202 18.6734C23.0739 18.753 23.001 18.8525 22.9017 18.9652C22.8024 19.078 22.6634 19.1841 22.4978 19.2769C22.3323 19.3764 22.1271 19.456 21.8821 19.5223C21.6371 19.5886 21.3524 19.6218 21.028 19.6218C20.5711 19.6218 20.1871 19.5289 19.8825 19.3499C19.5714 19.1642 19.3595 18.9586 19.2403 18.7132C19.2138 18.6601 19.1741 18.6336 19.1278 18.6336C19.1211 18.6336 19.1145 18.6336 19.1079 18.6336C19.0549 18.6402 19.002 18.6668 18.9689 18.6999C18.949 18.7198 18.8762 18.7861 18.7636 18.8856C18.651 18.9851 18.4855 19.0978 18.2736 19.2106C18.0618 19.3233 17.8036 19.4294 17.5056 19.5223C17.2077 19.6151 16.8634 19.6616 16.4727 19.6616C15.8106 19.6616 15.2479 19.5687 14.7976 19.383C14.3474 19.1973 13.9832 18.9519 13.6985 18.6601C13.4205 18.3617 13.2152 18.0301 13.096 17.6587C12.9702 17.2873 12.9106 16.9226 12.9106 16.5512C12.9106 15.961 13.0762 15.4437 13.4072 15.006C13.7383 14.5616 14.1686 14.2367 14.6983 14.0178C14.983 13.9051 15.281 13.8255 15.5855 13.7791C15.8967 13.7326 16.2013 13.6796 16.5125 13.6265C16.817 13.5735 17.1216 13.5071 17.4129 13.4276C17.7109 13.348 17.9889 13.222 18.2472 13.0429C18.5252 12.8572 18.7173 12.6185 18.8232 12.3267C18.9291 12.0349 18.9887 11.7232 18.9887 11.3982C18.9887 11.1594 18.9556 10.9273 18.896 10.7085C18.8298 10.4896 18.7437 10.2973 18.6246 10.1315C18.512 9.9657 18.373 9.83306 18.2207 9.74022C18.0684 9.64074 17.9029 9.59431 17.7241 9.59431C17.4063 9.59431 17.1679 9.6739 17.0157 9.8397C16.8634 10.0055 16.7508 10.2045 16.6647 10.4366C16.5787 10.6687 16.4992 10.9074 16.4264 11.1594C16.3536 11.4115 16.2344 11.6237 16.0689 11.8027C15.9364 11.942 15.7577 12.0481 15.5458 12.1211C15.3339 12.194 15.1287 12.2272 14.9367 12.2272C14.738 12.2272 14.5593 12.194 14.4004 12.1277C14.2415 12.0614 14.109 11.9685 13.9965 11.8558C13.8839 11.7431 13.7979 11.6038 13.7449 11.4513C13.6919 11.2987 13.6588 11.1329 13.6588 10.9605C13.6588 10.7284 13.7118 10.4963 13.8243 10.2641C13.9369 10.032 14.1355 9.8198 14.4202 9.63411C14.7049 9.44841 15.0956 9.29588 15.5789 9.18314C16.0622 9.06376 16.678 9.00407 17.4262 9.00407ZM17.6711 18.5408C17.9426 18.5408 18.1611 18.4877 18.3266 18.375C18.4921 18.2622 18.6246 18.1296 18.7173 17.9704C18.8099 17.8113 18.8762 17.6521 18.9159 17.4929C18.9556 17.3338 18.9689 17.2078 18.9689 17.1149V13.3347C18.9689 13.2883 18.949 13.2618 18.9159 13.2419C18.9026 13.2352 18.896 13.2352 18.8828 13.2352C18.8563 13.2352 18.8364 13.2485 18.8099 13.275C18.7504 13.3413 18.6974 13.4077 18.6444 13.4674C18.5981 13.527 18.5319 13.6 18.4458 13.6796C18.3068 13.8321 18.1611 13.9714 18.0088 14.0974C17.8565 14.23 17.7109 14.3627 17.5586 14.4953C17.4063 14.6147 17.2606 14.734 17.115 14.8534C16.9693 14.9728 16.8303 15.1054 16.7045 15.2447C16.5125 15.4702 16.3668 15.7156 16.2741 15.9808C16.1814 16.2461 16.1351 16.5313 16.1351 16.8297C16.1351 17.0287 16.1616 17.2343 16.2278 17.4399C16.2874 17.6455 16.38 17.8312 16.4992 17.9903C16.625 18.1495 16.7773 18.2821 16.9693 18.3816C17.1746 18.4877 17.3997 18.5408 17.6711 18.5408ZM17.4262 8.12866C16.6052 8.12866 15.9364 8.19498 15.3737 8.32762C14.7844 8.46689 14.3143 8.65258 13.9435 8.89796C13.5198 9.16987 13.2152 9.50147 13.0364 9.87949C12.8643 10.231 12.7782 10.5957 12.7782 10.9539C12.7782 11.2258 12.8246 11.491 12.9173 11.7431C13.0166 12.0083 13.1622 12.2537 13.3609 12.4527C13.5529 12.6516 13.7846 12.8108 14.0495 12.9235C14.2481 13.0098 14.4666 13.0628 14.6983 13.0827C14.5924 13.1159 14.4798 13.1557 14.3739 13.1954H14.3673H14.3606C13.6853 13.474 13.1291 13.8984 12.6988 14.4688C12.2486 15.0656 12.0234 15.762 12.0234 16.5446C12.0234 17.0022 12.1029 17.4664 12.2552 17.924C12.4207 18.4148 12.6855 18.8591 13.0563 19.2504C13.4205 19.635 13.8906 19.9467 14.4533 20.1788C15.0095 20.411 15.6848 20.5237 16.4595 20.5237C16.9362 20.5237 17.3666 20.464 17.7506 20.3446C18.1081 20.2319 18.4127 20.1059 18.6775 19.9666C18.7967 19.9003 18.896 19.8406 18.9953 19.7809C19.1211 19.8937 19.2668 19.9932 19.4257 20.086C19.8693 20.3513 20.4056 20.4839 21.0147 20.4839C21.4186 20.4839 21.7894 20.4375 22.1072 20.3513C22.4184 20.2651 22.6965 20.1523 22.9282 20.0197C23.1732 19.8804 23.3784 19.7146 23.544 19.5356C23.6896 19.3698 23.8022 19.2239 23.8816 19.078L23.8882 19.0647L23.8949 19.0514C24.1134 18.6203 24.0538 18.1429 23.736 17.8113C23.5241 17.5858 23.2394 17.4664 22.9282 17.4664C22.8686 17.4664 22.809 17.473 22.7494 17.4797C22.7296 17.2343 22.7296 16.9292 22.7428 16.5711C22.7627 16.0936 22.7892 15.5365 22.8355 14.9131C22.8819 14.2632 22.9017 13.5536 22.9017 12.8108C22.9017 12.1078 22.8024 11.4645 22.5972 10.9008C22.3787 10.284 22.0211 9.76011 21.5378 9.33567C21.0743 8.93112 20.4784 8.62606 19.77 8.42047C19.1278 8.22814 18.3266 8.12866 17.4262 8.12866ZM17.6182 10.4697C17.638 10.4697 17.6711 10.4631 17.7175 10.4631C17.7307 10.4631 17.7307 10.4631 17.7506 10.4697C17.8036 10.5029 17.8565 10.5559 17.9095 10.6289C17.9691 10.7151 18.0154 10.8212 18.0552 10.9472C18.0949 11.0865 18.1147 11.239 18.1147 11.3916C18.1147 11.617 18.0816 11.8226 18.0088 12.015C17.9625 12.1343 17.8896 12.2272 17.7638 12.3134C17.5784 12.4394 17.3931 12.5256 17.1944 12.5787C16.923 12.6516 16.6515 12.7113 16.3734 12.7577C16.3138 12.771 16.2542 12.7776 16.188 12.7909C16.3867 12.6848 16.5588 12.5521 16.7045 12.3996L16.7111 12.393L16.7177 12.3864C16.9693 12.1078 17.1547 11.7762 17.2673 11.3982C17.3335 11.1661 17.4129 10.9406 17.4924 10.7284C17.5122 10.6289 17.5586 10.5427 17.6182 10.4697ZM17.3732 15.8349C17.4659 15.7288 17.5718 15.6294 17.6778 15.5431C17.8102 15.4304 17.9492 15.3177 18.0883 15.2115V17.1215C18.0883 17.1348 18.0816 17.1812 18.0552 17.3006C18.0353 17.3736 18.0088 17.4465 17.9625 17.5261C17.936 17.5725 17.8963 17.6123 17.8367 17.6521C17.8367 17.6521 17.7903 17.672 17.6645 17.672C17.5453 17.672 17.446 17.6521 17.3864 17.6256C17.307 17.5858 17.2474 17.5327 17.201 17.473C17.1415 17.4001 17.1017 17.3139 17.0752 17.2144C17.0355 17.0884 17.0223 16.969 17.0223 16.8496C17.0223 16.6507 17.0488 16.465 17.115 16.2925C17.1679 16.1201 17.254 15.9742 17.3732 15.8349Z" fill="white"/>
<path d="M42.2748 18.3486C42.3807 18.3287 42.4602 18.3486 42.5198 18.4082C42.5794 18.4746 42.586 18.5541 42.533 18.6603C42.4867 18.7398 42.4138 18.8393 42.3145 18.9521C42.2152 19.0648 42.0762 19.1709 41.9106 19.2638C41.7451 19.3632 41.5399 19.4428 41.2949 19.5091C41.0499 19.5755 40.7652 19.6086 40.4408 19.6086C39.9839 19.6086 39.5999 19.5158 39.2954 19.3367C38.9842 19.151 38.7723 18.9454 38.6531 18.7C38.62 18.6404 38.5803 18.6138 38.5273 18.6205C38.4744 18.6271 38.4214 18.6536 38.3883 18.6868C38.3684 18.7067 38.2956 18.773 38.183 18.8725C38.0705 18.972 37.9049 19.0847 37.6931 19.1974C37.4812 19.3102 37.223 19.4163 36.925 19.5091C36.6271 19.602 36.2828 19.6484 35.8922 19.6484C35.2301 19.6484 34.6673 19.5556 34.2171 19.3699C33.7668 19.1842 33.4027 18.9388 33.118 18.647C32.8399 18.3486 32.6346 18.017 32.5155 17.6456C32.3897 17.2742 32.3301 16.9094 32.3301 16.538C32.3301 15.9478 32.4956 15.4305 32.8267 14.9928C33.1577 14.5485 33.5881 14.2235 34.1177 14.0047C34.4024 13.8919 34.7004 13.8123 35.005 13.7659C35.3161 13.7195 35.6207 13.6664 35.9319 13.6134C36.2365 13.5603 36.541 13.494 36.8323 13.4144C37.1303 13.3348 37.4084 13.2088 37.6666 13.0298C37.9447 12.8441 38.1367 12.6053 38.2426 12.3135C38.3486 12.0217 38.4081 11.71 38.4081 11.385C38.4081 11.1463 38.375 10.9142 38.3155 10.6953C38.2492 10.4765 38.1632 10.2842 38.044 10.1184C37.9314 9.95255 37.7924 9.81992 37.6401 9.72707C37.4878 9.62759 37.3223 9.58117 37.1435 9.58117C36.8257 9.58117 36.5874 9.66075 36.4351 9.82655C36.2828 9.99235 36.1703 10.1913 36.0842 10.4234C35.9981 10.6555 35.9187 10.8943 35.8458 11.1463C35.773 11.3983 35.6538 11.6105 35.4883 11.7896C35.3559 11.9289 35.1771 12.035 34.9652 12.1079C34.7534 12.1809 34.5481 12.214 34.3561 12.214C34.1575 12.214 33.9787 12.1809 33.8198 12.1146C33.6609 12.0482 33.5285 11.9554 33.4159 11.8426C33.3034 11.7299 33.2173 11.5906 33.1643 11.4381C33.1114 11.2856 33.0783 11.1198 33.0783 10.9473C33.0783 10.7152 33.1312 10.4831 33.2438 10.251C33.3563 10.0189 33.555 9.80665 33.8397 9.62096C34.1244 9.43527 34.515 9.28273 34.9983 9.16999C35.4817 9.05725 36.0974 8.99756 36.8456 8.99756C37.6732 8.99756 38.3817 9.08377 38.9643 9.24957C39.547 9.41537 40.0303 9.66075 40.3944 9.98571C40.7652 10.304 41.0301 10.7086 41.2022 11.1795C41.3677 11.657 41.4538 12.1941 41.4538 12.7976C41.4538 13.5205 41.4339 14.2036 41.3876 14.8403C41.3412 15.4769 41.3081 16.0407 41.2949 16.5314C41.275 17.0222 41.2883 17.4267 41.3214 17.7451C41.3611 18.0634 41.4604 18.2623 41.6326 18.3353C41.7054 18.3751 41.7981 18.3883 41.9106 18.3883C42.0298 18.3883 42.149 18.3751 42.2748 18.3486ZM38.3883 13.3348C38.3883 13.2884 38.3684 13.2619 38.3353 13.242C38.2956 13.2287 38.2625 13.2354 38.236 13.2751C38.1764 13.3415 38.1234 13.4078 38.0705 13.4675C38.0241 13.5272 37.9579 13.6001 37.8718 13.6797C37.7328 13.8322 37.5871 13.9715 37.4349 14.0975C37.2826 14.2301 37.1369 14.3628 36.9846 14.4954C36.8323 14.6148 36.6867 14.7342 36.541 14.8535C36.3954 14.9729 36.2563 15.1056 36.1305 15.2448C35.9385 15.4703 35.7929 15.7157 35.7002 15.981C35.6075 16.2462 35.5611 16.5314 35.5611 16.8298C35.5611 17.0288 35.5876 17.2344 35.6538 17.44C35.7134 17.6456 35.8061 17.8313 35.9253 17.9904C36.0511 18.1496 36.2034 18.2822 36.3954 18.3817C36.5874 18.4812 36.8125 18.5343 37.0839 18.5343C37.3554 18.5343 37.5739 18.4812 37.7394 18.3685C37.9049 18.2557 38.0374 18.1231 38.1301 17.9639C38.2228 17.8047 38.289 17.6456 38.3287 17.4864C38.3684 17.3272 38.3817 17.2012 38.3817 17.1084V13.3348H38.3883Z" fill="#219EBC"/>
<path d="M36.8456 9.00407C37.6732 9.00407 38.3817 9.09029 38.9643 9.25609C39.547 9.42189 40.0303 9.66727 40.3944 9.99223C40.7652 10.3106 41.0301 10.7151 41.2022 11.186C41.3677 11.6635 41.4538 12.2007 41.4538 12.8042C41.4538 13.527 41.4339 14.2101 41.3876 14.8468C41.3412 15.4835 41.3081 16.0472 41.2949 16.5379C41.275 17.0287 41.2883 17.4332 41.3214 17.7516C41.3611 18.0699 41.4604 18.2689 41.6326 18.3418C41.6988 18.375 41.7849 18.3949 41.8842 18.3949C41.8974 18.3949 41.904 18.3949 41.9173 18.3949C42.0298 18.3882 42.149 18.375 42.2748 18.3551C42.3013 18.3484 42.3278 18.3484 42.3543 18.3484C42.4205 18.3484 42.4801 18.375 42.5264 18.4214C42.586 18.4877 42.5926 18.5673 42.5396 18.6734C42.4933 18.753 42.4205 18.8525 42.3212 18.9652C42.2218 19.078 42.0828 19.1841 41.9173 19.2769C41.7517 19.3764 41.5465 19.456 41.3015 19.5223C41.0565 19.5886 40.7718 19.6218 40.4474 19.6218C39.9906 19.6218 39.6065 19.5289 39.302 19.3499C38.9908 19.1642 38.7789 18.9586 38.6597 18.7132C38.6333 18.6601 38.5935 18.6336 38.5472 18.6336C38.5406 18.6336 38.5339 18.6336 38.5273 18.6336C38.4744 18.6402 38.4214 18.6668 38.3883 18.6999C38.3684 18.7198 38.2956 18.7861 38.183 18.8856C38.0705 18.9851 37.905 19.0978 37.6931 19.2106C37.4812 19.3233 37.223 19.4294 36.925 19.5223C36.6271 19.6151 36.2828 19.6616 35.8922 19.6616C35.2301 19.6616 34.6673 19.5687 34.2171 19.383C33.7668 19.1973 33.4027 18.9519 33.118 18.6601C32.8399 18.3617 32.6346 18.0301 32.5155 17.6587C32.3897 17.2873 32.3301 16.9226 32.3301 16.5512C32.3301 15.961 32.4956 15.4437 32.8267 15.006C33.1577 14.5616 33.5881 14.2367 34.1177 14.0178C34.4025 13.9051 34.7004 13.8255 35.005 13.7791C35.3161 13.7326 35.6207 13.6796 35.9319 13.6265C36.2365 13.5735 36.541 13.5071 36.8324 13.4276C37.1303 13.348 37.4084 13.222 37.6666 13.0429C37.9447 12.8572 38.1367 12.6185 38.2426 12.3267C38.3486 12.0349 38.4081 11.7232 38.4081 11.3982C38.4081 11.1594 38.375 10.9273 38.3155 10.7085C38.2492 10.4896 38.1632 10.2973 38.044 10.1315C37.9314 9.9657 37.7924 9.83306 37.6401 9.74022C37.4878 9.64074 37.3223 9.59431 37.1435 9.59431C36.8257 9.59431 36.5874 9.6739 36.4351 9.8397C36.2828 10.0055 36.1703 10.2045 36.0842 10.4366C35.9981 10.6687 35.9187 10.9074 35.8458 11.1594C35.773 11.4115 35.6538 11.6237 35.4883 11.8027C35.3559 11.942 35.1771 12.0481 34.9652 12.1211C34.7534 12.194 34.5481 12.2272 34.3561 12.2272C34.1575 12.2272 33.9787 12.194 33.8198 12.1277C33.6609 12.0614 33.5285 11.9685 33.4159 11.8558C33.3034 11.7431 33.2173 11.6038 33.1643 11.4513C33.1114 11.2987 33.0783 11.1329 33.0783 10.9605C33.0783 10.7284 33.1312 10.4963 33.2438 10.2641C33.3563 10.032 33.555 9.8198 33.8397 9.63411C34.1244 9.44841 34.515 9.29588 34.9983 9.18314C35.4817 9.06376 36.0974 9.00407 36.8456 9.00407ZM37.0906 18.5408C37.362 18.5408 37.5805 18.4877 37.746 18.375C37.9116 18.2622 38.044 18.1296 38.1367 17.9704C38.2294 17.8113 38.2956 17.6521 38.3353 17.4929C38.375 17.3338 38.3883 17.2078 38.3883 17.1149V13.3347C38.3883 13.2883 38.3684 13.2618 38.3353 13.2419C38.3221 13.2352 38.3155 13.2352 38.3022 13.2352C38.2757 13.2352 38.2559 13.2485 38.2294 13.275C38.1698 13.3413 38.1168 13.4077 38.0639 13.4674C38.0175 13.527 37.9513 13.6 37.8652 13.6796C37.7262 13.8321 37.5805 13.9714 37.4282 14.0974C37.276 14.23 37.1303 14.3627 36.978 14.4953C36.8257 14.6147 36.6801 14.734 36.5344 14.8534C36.3887 14.9728 36.2497 15.1054 36.1239 15.2447C35.9319 15.4702 35.7862 15.7156 35.6935 15.9808C35.6008 16.2461 35.5545 16.5313 35.5545 16.8297C35.5545 17.0287 35.581 17.2343 35.6472 17.4399C35.7068 17.6455 35.7995 17.8312 35.9187 17.9903C36.0445 18.1495 36.1967 18.2821 36.3887 18.3816C36.594 18.4877 36.8257 18.5408 37.0906 18.5408ZM36.8456 8.12866C36.0246 8.12866 35.3559 8.19498 34.7931 8.32762C34.2038 8.46689 33.7337 8.65258 33.363 8.89796C32.9392 9.16987 32.6346 9.50147 32.4559 9.87949C32.2837 10.231 32.1977 10.5957 32.1977 10.9539C32.1977 11.2258 32.244 11.491 32.3367 11.7431C32.436 12.0083 32.5817 12.2537 32.7803 12.4527C32.9723 12.6516 33.2041 12.8108 33.4689 12.9235C33.6675 13.0098 33.886 13.0628 34.1177 13.0827C34.0118 13.1159 33.8993 13.1557 33.7933 13.1954H33.7867H33.7801C33.1047 13.474 32.5486 13.8984 32.1182 14.4688C31.668 15.0656 31.4429 15.762 31.4429 16.5446C31.4429 17.0022 31.5223 17.4664 31.6746 17.924C31.8401 18.4148 32.105 18.8591 32.4757 19.2504C32.8399 19.635 33.31 19.9467 33.8728 20.1788C34.4289 20.411 35.1043 20.5237 35.8789 20.5237C36.3556 20.5237 36.786 20.464 37.17 20.3446C37.5276 20.2319 37.8321 20.1059 38.097 19.9666C38.2161 19.9003 38.3155 19.8406 38.4148 19.7809C38.5406 19.8937 38.6862 19.9932 38.8451 20.086C39.2887 20.3513 39.825 20.4839 40.4342 20.4839C40.8381 20.4839 41.2088 20.4375 41.5266 20.3513C41.8378 20.2651 42.1159 20.1523 42.3476 20.0197C42.5926 19.8804 42.7979 19.7146 42.9634 19.5356C43.1091 19.3698 43.2216 19.2239 43.3011 19.078L43.3077 19.0647L43.3143 19.0514C43.5328 18.6203 43.4732 18.1429 43.1554 17.8113C42.9435 17.5858 42.6588 17.4664 42.3476 17.4664C42.288 17.4664 42.2285 17.473 42.1689 17.4797C42.149 17.2343 42.149 16.9292 42.1622 16.5711C42.1821 16.0936 42.2086 15.5365 42.2549 14.9131C42.3013 14.2632 42.3212 13.5536 42.3212 12.8108C42.3212 12.1078 42.2218 11.4645 42.0166 10.9008C41.7981 10.284 41.4406 9.76011 40.9572 9.33567C40.4938 8.93112 39.8979 8.62606 39.1894 8.42047C38.5472 8.22814 37.7527 8.12866 36.8456 8.12866ZM37.0376 10.4697C37.0575 10.4697 37.0906 10.4631 37.1369 10.4631C37.1502 10.4631 37.1502 10.4631 37.17 10.4697C37.223 10.5029 37.276 10.5559 37.3289 10.6289C37.3885 10.7151 37.4349 10.8212 37.4746 10.9472C37.5143 11.0865 37.5342 11.239 37.5342 11.3916C37.5342 11.617 37.5011 11.8226 37.4282 12.015C37.3819 12.1343 37.3091 12.2272 37.1833 12.3134C36.9979 12.4394 36.8125 12.5256 36.6139 12.5787C36.3424 12.6516 36.0709 12.7113 35.7929 12.7577C35.7333 12.771 35.6737 12.7776 35.6075 12.7909C35.8061 12.6848 35.9782 12.5521 36.1239 12.3996L36.1305 12.393L36.1371 12.3864C36.3887 12.1078 36.5741 11.7762 36.6867 11.3982C36.7529 11.1661 36.8324 10.9406 36.9118 10.7284C36.9383 10.6289 36.9846 10.5427 37.0376 10.4697ZM36.7992 15.8349C36.8919 15.7288 36.9979 15.6294 37.1038 15.5431C37.2362 15.4304 37.3753 15.3177 37.5143 15.2115V17.1215C37.5143 17.1348 37.5077 17.1812 37.4812 17.3006C37.4613 17.3736 37.4349 17.4465 37.3885 17.5261C37.362 17.5725 37.3223 17.6123 37.2627 17.6521C37.2627 17.6521 37.2164 17.672 37.0906 17.672C36.9714 17.672 36.8721 17.6521 36.8125 17.6256C36.733 17.5858 36.6735 17.5327 36.6271 17.473C36.5675 17.4001 36.5278 17.3139 36.5013 17.2144C36.4616 17.0884 36.4483 16.969 36.4483 16.8496C36.4483 16.6507 36.4748 16.465 36.541 16.2925C36.5874 16.1201 36.6734 15.9742 36.7992 15.8349Z" fill="white"/>
<path d="M53.1264 18.3486C53.2323 18.3287 53.3117 18.3486 53.3713 18.4082C53.4309 18.4746 53.4375 18.5541 53.3846 18.6603C53.3382 18.7398 53.2654 18.8393 53.1661 18.9521C53.0668 19.0648 52.9277 19.1709 52.7622 19.2638C52.5967 19.3632 52.3914 19.4428 52.1465 19.5091C51.9015 19.5755 51.6168 19.6086 51.2923 19.6086C50.8355 19.6086 50.4515 19.5158 50.1469 19.3367C49.8357 19.151 49.6239 18.9454 49.5047 18.7C49.4716 18.6404 49.4319 18.6138 49.3789 18.6205C49.3259 18.6271 49.2729 18.6536 49.2398 18.6868C49.22 18.7067 49.1471 18.773 49.0346 18.8725C48.922 18.972 48.7565 19.0847 48.5446 19.1974C48.3328 19.3102 48.0745 19.4163 47.7766 19.5091C47.4787 19.602 47.1344 19.6484 46.7437 19.6484C46.0816 19.6484 45.5188 19.5556 45.0686 19.3699C44.6184 19.1842 44.2542 18.9388 43.9695 18.647C43.6915 18.3486 43.4862 18.017 43.367 17.6456C43.2412 17.2742 43.1816 16.9094 43.1816 16.538C43.1816 15.9478 43.3472 15.4305 43.6782 14.9928C44.0093 14.5485 44.4396 14.2235 44.9693 14.0047C45.254 13.8919 45.552 13.8123 45.8565 13.7659C46.1677 13.7195 46.4723 13.6664 46.7835 13.6134C47.088 13.5603 47.3926 13.494 47.6839 13.4144C47.9819 13.3348 48.2599 13.2088 48.5182 13.0298C48.7962 12.8441 48.9882 12.6053 49.0942 12.3135C49.2001 12.0217 49.2597 11.71 49.2597 11.385C49.2597 11.1463 49.2266 10.9142 49.167 10.6953C49.1008 10.4765 49.0147 10.2842 48.8956 10.1184C48.783 9.95255 48.644 9.81992 48.4917 9.72707C48.3394 9.62759 48.1739 9.58117 47.9951 9.58117C47.6773 9.58117 47.4389 9.66075 47.2867 9.82655C47.1344 9.99235 47.0218 10.1913 46.9357 10.4234C46.8497 10.6555 46.7702 10.8943 46.6974 11.1463C46.6246 11.3983 46.5054 11.6105 46.3399 11.7896C46.2074 11.9289 46.0287 12.035 45.8168 12.1079C45.6049 12.1809 45.3997 12.214 45.2077 12.214C45.009 12.214 44.8303 12.1809 44.6714 12.1146C44.5125 12.0482 44.38 11.9554 44.2675 11.8426C44.1549 11.7299 44.0689 11.5906 44.0159 11.4381C43.9629 11.2856 43.9298 11.1198 43.9298 10.9473C43.9298 10.7152 43.9828 10.4831 44.0953 10.251C44.2079 10.0189 44.4065 9.80665 44.6912 9.62096C44.9759 9.43527 45.3666 9.28273 45.8499 9.16999C46.3332 9.05725 46.949 8.99756 47.6972 8.99756C48.5248 8.99756 49.2332 9.08377 49.8159 9.24957C50.3985 9.41537 50.8818 9.66075 51.246 9.98571C51.6168 10.304 51.8816 10.7086 52.0538 11.1795C52.2193 11.657 52.3054 12.1941 52.3054 12.7976C52.3054 13.5205 52.2855 14.2036 52.2392 14.8403C52.1928 15.4769 52.1597 16.0407 52.1465 16.5314C52.1266 17.0222 52.1398 17.4267 52.1729 17.7451C52.2127 18.0634 52.312 18.2623 52.4841 18.3353C52.557 18.3751 52.6497 18.3883 52.7622 18.3883C52.8814 18.3883 53.0006 18.3751 53.1264 18.3486ZM49.2398 13.3348C49.2398 13.2884 49.22 13.2619 49.1869 13.242C49.1472 13.2287 49.114 13.2354 49.0876 13.2751C49.028 13.3415 48.975 13.4078 48.922 13.4675C48.8757 13.5272 48.8095 13.6001 48.7234 13.6797C48.5844 13.8322 48.4387 13.9715 48.2864 14.0975C48.1341 14.2301 47.9885 14.3628 47.8362 14.4954C47.6839 14.6148 47.5382 14.7342 47.3926 14.8535C47.2469 14.9729 47.1079 15.1056 46.9821 15.2448C46.7901 15.4703 46.6444 15.7157 46.5517 15.981C46.459 16.2462 46.4127 16.5314 46.4127 16.8298C46.4127 17.0288 46.4392 17.2344 46.5054 17.44C46.565 17.6456 46.6577 17.8313 46.7768 17.9904C46.9026 18.1496 47.0549 18.2822 47.2469 18.3817C47.4389 18.4812 47.664 18.5343 47.9355 18.5343C48.207 18.5343 48.4255 18.4812 48.591 18.3685C48.7565 18.2557 48.8889 18.1231 48.9816 17.9639C49.0743 17.8047 49.1405 17.6456 49.1803 17.4864C49.22 17.3272 49.2332 17.2012 49.2332 17.1084V13.3348H49.2398Z" fill="#219EBC"/>
<path d="M47.6972 9.00407C48.5248 9.00407 49.2332 9.09029 49.8159 9.25609C50.3985 9.42189 50.8819 9.66727 51.246 9.99223C51.6168 10.3106 51.8816 10.7151 52.0538 11.186C52.2193 11.6635 52.3054 12.2007 52.3054 12.8042C52.3054 13.527 52.2855 14.2101 52.2392 14.8468C52.1928 15.4835 52.1597 16.0472 52.1465 16.5379C52.1266 17.0287 52.1398 17.4332 52.1729 17.7516C52.2127 18.0699 52.312 18.2689 52.4841 18.3418C52.5503 18.375 52.6364 18.3949 52.7357 18.3949C52.749 18.3949 52.7556 18.3949 52.7688 18.3949C52.8814 18.3882 53.0006 18.375 53.1264 18.3551C53.1529 18.3484 53.1793 18.3484 53.2058 18.3484C53.272 18.3484 53.3316 18.375 53.378 18.4214C53.4376 18.4877 53.4442 18.5673 53.3912 18.6734C53.3449 18.753 53.272 18.8525 53.1727 18.9652C53.0734 19.078 52.9344 19.1841 52.7688 19.2769C52.6033 19.3764 52.3981 19.456 52.1531 19.5223C51.9081 19.5886 51.6234 19.6218 51.299 19.6218C50.8421 19.6218 50.4581 19.5289 50.1535 19.3499C49.8424 19.1642 49.6305 18.9586 49.5113 18.7132C49.4848 18.6601 49.4451 18.6336 49.3988 18.6336C49.3921 18.6336 49.3855 18.6336 49.3789 18.6336C49.3259 18.6402 49.273 18.6668 49.2398 18.6999C49.22 18.7198 49.1472 18.7861 49.0346 18.8856C48.922 18.9851 48.7565 19.0978 48.5446 19.2106C48.3328 19.3233 48.0746 19.4294 47.7766 19.5223C47.4787 19.6151 47.1344 19.6616 46.7437 19.6616C46.0816 19.6616 45.5189 19.5687 45.0686 19.383C44.6184 19.1973 44.2542 18.9519 43.9695 18.6601C43.6915 18.3617 43.4862 18.0301 43.367 17.6587C43.2412 17.2873 43.1816 16.9226 43.1816 16.5512C43.1816 15.961 43.3472 15.4437 43.6782 15.006C44.0093 14.5616 44.4396 14.2367 44.9693 14.0178C45.254 13.9051 45.552 13.8255 45.8565 13.7791C46.1677 13.7326 46.4723 13.6796 46.7835 13.6265C47.088 13.5735 47.3926 13.5071 47.6839 13.4276C47.9819 13.348 48.2599 13.222 48.5182 13.0429C48.7962 12.8572 48.9883 12.6185 49.0942 12.3267C49.2001 12.0349 49.2597 11.7232 49.2597 11.3982C49.2597 11.1594 49.2266 10.9273 49.167 10.7085C49.1008 10.4896 49.0147 10.2973 48.8956 10.1315C48.783 9.9657 48.644 9.83306 48.4917 9.74022C48.3394 9.64074 48.1739 9.59431 47.9951 9.59431C47.6773 9.59431 47.4389 9.6739 47.2867 9.8397C47.1344 10.0055 47.0218 10.2045 46.9357 10.4366C46.8497 10.6687 46.7702 10.9074 46.6974 11.1594C46.6246 11.4115 46.5054 11.6237 46.3399 11.8027C46.2074 11.942 46.0287 12.0481 45.8168 12.1211C45.6049 12.194 45.3997 12.2272 45.2077 12.2272C45.009 12.2272 44.8303 12.194 44.6714 12.1277C44.5125 12.0614 44.38 11.9685 44.2675 11.8558C44.1549 11.7431 44.0689 11.6038 44.0159 11.4513C43.9629 11.2987 43.9298 11.1329 43.9298 10.9605C43.9298 10.7284 43.9828 10.4963 44.0953 10.2641C44.2079 10.032 44.4065 9.8198 44.6912 9.63411C44.9759 9.44841 45.3666 9.29588 45.8499 9.18314C46.3332 9.06376 46.949 9.00407 47.6972 9.00407ZM47.9421 18.5408C48.2136 18.5408 48.4321 18.4877 48.5976 18.375C48.7631 18.2622 48.8956 18.1296 48.9883 17.9704C49.0809 17.8113 49.1472 17.6521 49.1869 17.4929C49.2266 17.3338 49.2398 17.2078 49.2398 17.1149V13.3347C49.2398 13.2883 49.22 13.2618 49.1869 13.2419C49.1736 13.2352 49.167 13.2352 49.1538 13.2352C49.1273 13.2352 49.1074 13.2485 49.0809 13.275C49.0214 13.3413 48.9684 13.4077 48.9154 13.4674C48.8691 13.527 48.8029 13.6 48.7168 13.6796C48.5777 13.8321 48.4321 13.9714 48.2798 14.0974C48.1275 14.23 47.9819 14.3627 47.8296 14.4953C47.6773 14.6147 47.5316 14.734 47.386 14.8534C47.2403 14.9728 47.1013 15.1054 46.9755 15.2447C46.7835 15.4702 46.6378 15.7156 46.5451 15.9808C46.4524 16.2461 46.4061 16.5313 46.4061 16.8297C46.4061 17.0287 46.4325 17.2343 46.4988 17.4399C46.5583 17.6455 46.651 17.8312 46.7702 17.9903C46.896 18.1495 47.0483 18.2821 47.2403 18.3816C47.4456 18.4877 47.6707 18.5408 47.9421 18.5408ZM47.6972 8.12866C46.8762 8.12866 46.2074 8.19498 45.6447 8.32762C45.0554 8.46689 44.5853 8.65258 44.2145 8.89796C43.7908 9.16987 43.4862 9.50147 43.3074 9.87949C43.1353 10.231 43.0492 10.5957 43.0492 10.9539C43.0492 11.2258 43.0956 11.491 43.1883 11.7431C43.2876 12.0083 43.4332 12.2537 43.6319 12.4527C43.8239 12.6516 44.0556 12.8108 44.3205 12.9235C44.5191 13.0098 44.7376 13.0628 44.9693 13.0827C44.8634 13.1159 44.7508 13.1557 44.6449 13.1954H44.6383H44.6316C43.9563 13.474 43.4001 13.8984 42.9698 14.4688C42.5195 15.0656 42.2944 15.762 42.2944 16.5446C42.2944 17.0022 42.3739 17.4664 42.5262 17.924C42.6917 18.4148 42.9565 18.8591 43.3273 19.2504C43.6915 19.635 44.1616 19.9467 44.7243 20.1788C45.2805 20.411 45.9558 20.5237 46.7305 20.5237C47.2072 20.5237 47.6376 20.464 48.0216 20.3446C48.3791 20.2319 48.6837 20.1059 48.9485 19.9666C49.0677 19.9003 49.167 19.8406 49.2663 19.7809C49.3921 19.8937 49.5378 19.9932 49.6967 20.086C50.1403 20.3513 50.6766 20.4839 51.2857 20.4839C51.6896 20.4839 52.0604 20.4375 52.3782 20.3513C52.6894 20.2651 52.9675 20.1523 53.1992 20.0197C53.4442 19.8804 53.6494 19.7146 53.8149 19.5356C53.9606 19.3698 54.0732 19.2239 54.1526 19.078L54.1592 19.0647L54.1659 19.0514C54.3844 18.6203 54.3248 18.1429 54.007 17.8113C53.7951 17.5858 53.5104 17.4664 53.1992 17.4664C53.1396 17.4664 53.08 17.473 53.0204 17.4797C53.0006 17.2343 53.0006 16.9292 53.0138 16.5711C53.0337 16.0936 53.0602 15.5365 53.1065 14.9131C53.1529 14.2632 53.1727 13.5536 53.1727 12.8108C53.1727 12.1078 53.0734 11.4645 52.8681 10.9008C52.6497 10.284 52.2921 9.76011 51.8088 9.33567C51.3453 8.93112 50.7494 8.62606 50.041 8.42047C49.3988 8.22814 48.6042 8.12866 47.6972 8.12866ZM47.8892 10.4697C47.909 10.4697 47.9421 10.4631 47.9885 10.4631C48.0017 10.4631 48.0017 10.4631 48.0216 10.4697C48.0746 10.5029 48.1275 10.5559 48.1805 10.6289C48.2401 10.7151 48.2864 10.8212 48.3262 10.9472C48.3659 11.0865 48.3857 11.239 48.3857 11.3916C48.3857 11.617 48.3526 11.8226 48.2798 12.015C48.2335 12.1343 48.1606 12.2272 48.0348 12.3134C47.8494 12.4394 47.6641 12.5256 47.4654 12.5787C47.194 12.6516 46.9225 12.7113 46.6444 12.7577C46.5848 12.771 46.5252 12.7776 46.459 12.7909C46.6577 12.6848 46.8298 12.5521 46.9755 12.3996L46.9821 12.393L46.9887 12.3864C47.2403 12.1078 47.4257 11.7762 47.5383 11.3982C47.6045 11.1661 47.6839 10.9406 47.7634 10.7284C47.7832 10.6289 47.8296 10.5427 47.8892 10.4697ZM47.6442 15.8349C47.7369 15.7288 47.8428 15.6294 47.9488 15.5431C48.0812 15.4304 48.2202 15.3177 48.3593 15.2115V17.1215C48.3593 17.1348 48.3526 17.1812 48.3262 17.3006C48.3063 17.3736 48.2798 17.4465 48.2335 17.5261C48.207 17.5725 48.1672 17.6123 48.1077 17.6521C48.1077 17.6521 48.0613 17.672 47.9355 17.672C47.8163 17.672 47.717 17.6521 47.6574 17.6256C47.578 17.5858 47.5184 17.5327 47.472 17.473C47.4125 17.4001 47.3727 17.3139 47.3462 17.2144C47.3065 17.0884 47.2933 16.969 47.2933 16.8496C47.2933 16.6507 47.3198 16.465 47.386 16.2925C47.4389 16.1201 47.525 15.9742 47.6442 15.8349Z" fill="white"/>
<path d="M66.7062 19.0581C66.7658 19.0713 66.8055 19.0978 66.832 19.131C66.8585 19.1642 66.8651 19.1973 66.8585 19.2371C66.8519 19.2769 66.832 19.3101 66.7989 19.3366C66.7658 19.3698 66.7195 19.383 66.6599 19.383H65.3622H65.2629H62.4357H62.3364H61.0387C60.9791 19.383 60.9327 19.3698 60.8996 19.3366C60.8665 19.3101 60.8467 19.2703 60.84 19.2371C60.8334 19.1973 60.84 19.1642 60.8665 19.131C60.893 19.0978 60.9327 19.0713 60.9923 19.0581C61.0519 19.0514 61.1578 19.0249 61.3035 18.9851C61.4492 18.9453 61.6014 18.8724 61.7537 18.7729C61.906 18.6734 62.0451 18.5275 62.1642 18.3484C62.2834 18.1627 62.343 17.924 62.343 17.6256V13.5071V13.4143V12.7843C62.3364 12.4726 62.3099 12.1476 62.2702 11.816C62.2304 11.4844 62.1444 11.1793 62.0119 10.9074C61.8795 10.6355 61.6941 10.41 61.4425 10.2376C61.1909 10.0652 60.8599 9.97233 60.4428 9.97233C60.0124 9.97233 59.6747 10.0585 59.4364 10.231C59.198 10.4034 59.0193 10.6156 58.9067 10.8676C58.7941 11.1197 58.7213 11.3916 58.6948 11.6834C58.6683 11.9685 58.6551 12.2272 58.6551 12.4527V17.6256C58.6551 17.924 58.7147 18.1627 58.8339 18.3484C58.9531 18.5341 59.0921 18.6734 59.2444 18.7729C59.3967 18.8724 59.5489 18.9453 59.6946 18.9851C59.8403 19.0249 59.9396 19.0514 60.0058 19.0581C60.0654 19.0713 60.1051 19.0978 60.1316 19.131C60.1581 19.1642 60.1647 19.1973 60.1581 19.2371C60.1514 19.2769 60.1316 19.3101 60.0985 19.3366C60.0654 19.3698 60.019 19.383 59.9594 19.383H54.3382C54.2786 19.383 54.2323 19.3698 54.1992 19.3366C54.1661 19.3101 54.1462 19.2703 54.1396 19.2371C54.133 19.1973 54.1396 19.1642 54.1661 19.131C54.1926 19.0978 54.2323 19.0713 54.2919 19.0581C54.3515 19.0514 54.4574 19.0249 54.6031 18.9851C54.7487 18.9453 54.901 18.8724 55.0533 18.7729C55.2056 18.6734 55.3446 18.5275 55.4638 18.3484C55.583 18.1627 55.6426 17.924 55.6426 17.6256V11.3916C55.6426 11.2921 55.5962 11.2324 55.5101 11.2125C55.4969 11.2125 55.4439 11.1992 55.3446 11.1793C55.2519 11.1594 55.146 11.1329 55.0268 11.0998C54.9076 11.0732 54.7951 11.0467 54.6958 11.0202C54.5964 11.0003 54.5302 10.9804 54.5104 10.9737C54.4111 10.9539 54.3647 10.9008 54.3581 10.8212C54.3515 10.7416 54.4111 10.6886 54.5236 10.6554C54.8149 10.5891 55.1327 10.4963 55.4704 10.3835C55.8081 10.2708 56.1524 10.1381 56.4967 9.99223C56.841 9.84632 57.172 9.68716 57.4964 9.52136C57.8142 9.35556 58.1056 9.18313 58.3572 9.0107C58.4234 8.96428 58.4962 8.94438 58.5624 8.95765C58.6352 8.96428 58.6683 9.02397 58.6683 9.12344V10.0851C58.8273 9.9458 59.006 9.80653 59.2047 9.67389C59.4033 9.54126 59.635 9.42851 59.88 9.32903C60.1316 9.22955 60.4097 9.1566 60.7209 9.09029C61.032 9.0306 61.3697 8.99744 61.7471 8.99744C62.3562 8.99744 62.8727 9.06376 63.2898 9.1964C63.7069 9.32903 64.0446 9.5081 64.3227 9.73358C64.5941 9.95907 64.806 10.2177 64.9517 10.5095C65.0973 10.8013 65.2033 11.1064 65.2629 11.4181C65.3291 11.7298 65.3622 12.0415 65.3754 12.3532C65.3887 12.6649 65.3953 12.9501 65.3953 13.222V13.275V17.6057C65.3953 17.9041 65.4549 18.1428 65.574 18.3285C65.6932 18.5142 65.8323 18.6535 65.9845 18.753C66.1368 18.8525 66.2891 18.9254 66.4348 18.9652C66.5407 19.0249 66.6466 19.0514 66.7062 19.0581Z" fill="#219EBC"/>
<path d="M58.503 8.9511C58.5163 8.9511 58.5229 8.9511 58.5361 8.9511C58.6089 8.95773 58.6421 9.01742 58.6421 9.11689V10.0785C58.801 9.93925 58.9797 9.79998 59.1784 9.66734C59.377 9.5347 59.6087 9.42196 59.8537 9.32248C60.1053 9.223 60.3834 9.15005 60.6946 9.08373C61.0057 9.02405 61.3434 8.99089 61.7208 8.99089C62.3299 8.99089 62.8464 9.05721 63.2635 9.18985C63.6806 9.32248 64.0183 9.50154 64.2964 9.72703C64.5678 9.95251 64.7797 10.2112 64.9254 10.503C65.071 10.7948 65.177 11.0998 65.2366 11.4115C65.3028 11.7232 65.3359 12.0349 65.3491 12.3466C65.3624 12.6583 65.369 12.9435 65.369 13.2154V13.2685V17.5991C65.369 17.8975 65.4286 18.1363 65.5477 18.322C65.6669 18.5077 65.806 18.647 65.9582 18.7464C66.1105 18.8459 66.2628 18.9189 66.4085 18.9587C66.5541 18.9984 66.6535 19.025 66.7197 19.0316C66.7792 19.0449 66.819 19.0714 66.8455 19.1046C66.8719 19.1377 66.8786 19.1709 66.8719 19.2107C66.8653 19.2505 66.8455 19.2836 66.8124 19.3101C66.7792 19.3433 66.7329 19.3566 66.6733 19.3566H65.3756H65.2763H62.4359H62.3366H61.0389C60.9793 19.3566 60.9329 19.3433 60.8998 19.3101C60.8667 19.2836 60.8468 19.2438 60.8402 19.2107C60.8336 19.1709 60.8402 19.1377 60.8667 19.1046C60.8932 19.0714 60.9329 19.0449 60.9925 19.0316C61.0521 19.025 61.158 18.9984 61.2971 18.9587C61.4427 18.9189 61.595 18.8459 61.7473 18.7464C61.8996 18.647 62.0386 18.5011 62.1578 18.322C62.277 18.1363 62.3366 17.8975 62.3366 17.5991V13.4807V13.3878V12.7843C62.3299 12.4726 62.3035 12.1477 62.2637 11.8161C62.224 11.4845 62.1379 11.1794 62.0055 10.9075C61.8731 10.6356 61.6877 10.4101 61.4361 10.2377C61.1845 10.0653 60.8535 9.97241 60.4363 9.97241C60.006 9.97241 59.6683 10.0586 59.43 10.2311C59.1916 10.4035 59.0128 10.6157 58.9003 10.8677C58.7877 11.1197 58.7149 11.3916 58.6884 11.6834C58.6619 11.9686 58.6487 12.2273 58.6487 12.4527V17.6256C58.6487 17.9241 58.7083 18.1628 58.8274 18.3485C58.9466 18.5342 59.0857 18.6735 59.2379 18.773C59.3902 18.8724 59.5425 18.9454 59.6882 18.9852C59.8338 19.025 59.9331 19.0515 59.9994 19.0581C60.0589 19.0714 60.0987 19.0979 60.1252 19.1311C60.1516 19.1642 60.1583 19.1974 60.1516 19.2372C60.145 19.277 60.1252 19.3101 60.092 19.3367C60.0589 19.3698 60.0126 19.3831 59.953 19.3831H54.3318C54.2722 19.3831 54.2259 19.3698 54.1928 19.3367C54.1596 19.3101 54.1398 19.2704 54.1332 19.2372C54.1265 19.1974 54.1332 19.1642 54.1596 19.1311C54.1861 19.0979 54.2259 19.0714 54.2854 19.0581C54.345 19.0515 54.451 19.025 54.5966 18.9852C54.7423 18.9454 54.8946 18.8724 55.0469 18.773C55.1991 18.6735 55.3382 18.5276 55.4574 18.3485C55.5765 18.1628 55.6361 17.9241 55.6361 17.6256V11.3916C55.6361 11.2922 55.5898 11.2325 55.5037 11.2126C55.4905 11.2126 55.4375 11.1993 55.3382 11.1794C55.2455 11.1595 55.1396 11.133 55.0204 11.0998C54.9012 11.0733 54.7886 11.0468 54.6893 11.0203C54.59 11.0004 54.5238 10.9805 54.5039 10.9738C54.4046 10.9539 54.3583 10.9009 54.3517 10.8213C54.345 10.7417 54.4046 10.6887 54.5172 10.6555C54.8085 10.5892 55.1263 10.4963 55.464 10.3836C55.8017 10.2708 56.1459 10.1382 56.4902 9.99231C56.8345 9.8464 57.1656 9.68724 57.49 9.52144C57.8078 9.35564 58.0991 9.18321 58.3507 9.01078C58.3838 8.97099 58.4434 8.9511 58.503 8.9511ZM58.503 8.07568C58.2713 8.07568 58.0395 8.14863 57.8409 8.28127C57.6092 8.43381 57.351 8.59297 57.0596 8.74551C56.7617 8.90467 56.4505 9.05057 56.1261 9.18321C55.8017 9.32248 55.4772 9.44186 55.1594 9.5546C54.8482 9.66071 54.5635 9.74693 54.2987 9.80661L54.2854 9.81324L54.2722 9.81988C53.6829 9.97904 53.4446 10.4632 53.4644 10.8744C53.4843 11.332 53.7955 11.7033 54.2523 11.8293C54.3053 11.8426 54.3649 11.8625 54.4841 11.8824C54.5569 11.9023 54.643 11.9222 54.7489 11.9421V17.6323C54.7489 17.818 54.7092 17.8777 54.7092 17.8777C54.6562 17.9572 54.6033 18.0169 54.5503 18.0501C54.451 18.1164 54.3848 18.1429 54.345 18.1496C54.2192 18.1827 54.1729 18.196 54.1596 18.196L54.1133 18.2026L54.0603 18.2159C53.7425 18.2955 53.5571 18.4679 53.4512 18.6005C53.2724 18.8326 53.1996 19.1311 53.2592 19.4163C53.3055 19.6417 53.4181 19.8407 53.5969 19.9999C53.7293 20.1192 53.9676 20.2651 54.3186 20.2651H59.9398C60.1715 20.2651 60.3503 20.1988 60.4893 20.1259C60.6217 20.2055 60.8071 20.2651 61.0389 20.2651H62.3366H62.4359H65.2564H65.3557H66.6535C67.0044 20.2651 67.2361 20.1192 67.3751 19.9999C67.5473 19.8473 67.6665 19.6417 67.7128 19.4163C67.7724 19.1245 67.6996 18.8326 67.5208 18.6005C67.4149 18.4679 67.2295 18.2955 66.9183 18.2159L66.8653 18.2026L66.819 18.196C66.8057 18.196 66.7528 18.1827 66.6336 18.1496C66.5939 18.1363 66.5276 18.1098 66.4283 18.0501C66.3754 18.0169 66.3224 17.9572 66.2694 17.8777C66.2694 17.8777 66.2297 17.818 66.2297 17.6323V13.3016V13.2486C66.2297 12.97 66.2231 12.665 66.2098 12.3466C66.1966 11.9885 66.1569 11.6304 66.084 11.2656C66.0046 10.8744 65.8722 10.4963 65.6934 10.1382C65.4948 9.74029 65.2035 9.38217 64.8393 9.0771C64.4818 8.7853 64.0382 8.55318 63.5217 8.38075C63.0119 8.21495 62.4226 8.13537 61.7142 8.13537C61.2904 8.13537 60.8866 8.16853 60.5224 8.24148C60.1649 8.3078 59.8272 8.40728 59.5293 8.52002C59.4763 8.53992 59.4233 8.55981 59.3704 8.58634C59.2181 8.3078 58.9466 8.12211 58.6156 8.08895C58.5891 8.07568 58.5494 8.07568 58.503 8.07568ZM60.0987 18.1894C60.0854 18.1894 60.0325 18.1761 59.9133 18.1429C59.8736 18.1297 59.8073 18.1031 59.708 18.0434C59.6551 18.0103 59.6021 17.9506 59.5491 17.871C59.5491 17.871 59.5094 17.8113 59.5094 17.6256V12.4527C59.5094 12.2538 59.5226 12.0217 59.5425 11.763C59.5624 11.5707 59.6021 11.3983 59.6816 11.2325C59.7345 11.1197 59.814 11.0269 59.9265 10.9407C59.9596 10.9208 60.0854 10.8478 60.4231 10.8478C60.6482 10.8478 60.827 10.8876 60.9263 10.9539C61.0521 11.0468 61.1448 11.1529 61.211 11.2855C61.2971 11.4712 61.3567 11.6834 61.3898 11.9222C61.4295 12.2206 61.4494 12.5124 61.456 12.7976V13.4144V13.5072V17.6256C61.456 17.8113 61.4162 17.871 61.4162 17.871C61.3633 17.9506 61.3103 18.0103 61.2573 18.0434C61.158 18.1098 61.0918 18.1363 61.0521 18.1429C60.9263 18.1761 60.8799 18.1894 60.8667 18.1894L60.8204 18.196L60.7674 18.2092C60.6548 18.2358 60.5621 18.2756 60.4761 18.322C60.3966 18.2756 60.2973 18.2358 60.1847 18.2092L60.1318 18.196L60.0987 18.1894Z" fill="white"/>
<path d="M8.93792 12.0085C8.60025 11.4448 8.28906 10.9076 7.95801 10.3836C7.85208 10.2178 7.75276 10.3903 7.66669 10.4566C7.42833 10.6357 7.1966 10.8214 6.96487 11.0004C5.64729 12.0151 5.64067 12.088 6.64044 13.4211C6.73975 13.5537 6.81258 13.7527 7.03108 13.5802C7.62034 13.1226 8.20961 12.6717 8.79226 12.2141C8.85847 12.161 8.89157 12.0748 8.93792 12.0085Z" fill="#013047"/>
<path d="M25.4776 7.33294C25.3518 6.66975 25.2525 6.13919 25.1863 5.79434L25.0538 5.12451L24.6301 5.72138C24.1666 6.37794 23.7694 6.96818 23.4516 7.47221L23.4185 7.5319L23.4317 7.59158C23.5111 8.03592 23.5906 8.467 23.6634 8.88481L25.4776 7.33294Z" fill="#013047"/>
<path d="M25.7091 8.56641L23.8486 10.0254C24.2856 12.7114 24.5107 14.7341 24.5107 16.0538C24.5107 16.2727 24.4776 16.6308 24.4114 17.1083L24.3916 17.2476L25.0404 17.5129L25.1861 17.3272C25.9872 16.2926 26.3977 15.3906 26.3977 14.6479C26.3977 13.2618 26.411 12.3201 25.7091 8.56641Z" fill="#013047"/>
</svg>
