<svg width="17" height="15" viewBox="0 0 17 15" fill="none" xmlns="http://www.w3.org/2000/svg">
<path d="M2.47447 14.9842H1.26991L2.12168 14.1324C2.58095 13.6731 2.86775 13.0758 2.94485 12.4278C1.7464 11.6413 0.870046 10.6066 0.400932 9.41992C-0.0678495 8.23418 -0.126759 6.92889 0.23059 5.64513C0.659355 4.10473 1.66501 2.70071 3.06224 1.69167C4.58058 0.595207 6.47074 0.015625 8.52842 0.015625C11.1205 0.015625 13.3054 0.760359 14.8467 2.16926C16.2353 3.43856 17 5.15066 17 6.99023C17 7.88395 16.818 8.75356 16.4591 9.5749C16.0878 10.4248 15.5439 11.1816 14.8428 11.8241C13.2994 13.2386 11.1159 13.9863 8.52838 13.9863C7.56783 13.9863 6.56551 13.858 5.67062 13.6227C4.82357 14.4917 3.67575 14.9842 2.47447 14.9842ZM8.52842 1.01353C4.40245 1.01353 1.87074 3.47412 1.19194 5.91273C0.550484 8.21722 1.49606 10.3947 3.72139 11.7377L3.97003 11.8877L3.96238 12.178C3.94721 12.7526 3.81023 13.306 3.56505 13.8063C4.16209 13.6043 4.70385 13.2381 5.1281 12.7369L5.33905 12.4876L5.65189 12.5812C6.52982 12.8438 7.55137 12.9884 8.52842 12.9884C13.6634 12.9884 16.0021 9.87913 16.0021 6.99023C16.0021 5.4343 15.3527 3.98375 14.1734 2.90582C12.8192 1.66789 10.8671 1.01353 8.52842 1.01353Z" fill="black"/>
</svg>
