<svg width="17" height="18" viewBox="0 0 17 18" fill="none" xmlns="http://www.w3.org/2000/svg">
<path fill-rule="evenodd" clip-rule="evenodd" d="M5.02746 0.7995C5.90721 0.759 6.18771 0.75 8.42871 0.75C10.6697 0.75 10.9502 0.75975 11.8292 0.7995C12.7082 0.83925 13.3082 0.9795 13.8332 1.18275C14.383 1.3905 14.8817 1.71525 15.2942 2.13525C15.7142 2.547 16.0382 3.045 16.2452 3.5955C16.4492 4.1205 16.5887 4.7205 16.6292 5.598C16.6697 6.47925 16.6787 6.75975 16.6787 9C16.6787 11.241 16.669 11.5215 16.6292 12.4012C16.5895 13.2787 16.4492 13.8787 16.2452 14.4037C16.0382 14.9543 15.7137 15.4531 15.2942 15.8655C14.8817 16.2855 14.383 16.6095 13.8332 16.8165C13.3082 17.0205 12.7082 17.16 11.8307 17.2005C10.9502 17.241 10.6697 17.25 8.42871 17.25C6.18771 17.25 5.90721 17.2402 5.02746 17.2005C4.14996 17.1607 3.54996 17.0205 3.02496 16.8165C2.4744 16.6095 1.97558 16.2849 1.56321 15.8655C1.1435 15.4535 0.818697 14.9549 0.611461 14.4045C0.408211 13.8795 0.268711 13.2795 0.228211 12.402C0.187711 11.5207 0.178711 11.2402 0.178711 9C0.178711 6.759 0.188461 6.4785 0.228211 5.5995C0.267961 4.7205 0.408211 4.1205 0.611461 3.5955C0.819003 3.04506 1.14405 2.54648 1.56396 2.1345C1.97574 1.71488 2.47407 1.39008 3.02421 1.18275C3.54921 0.9795 4.14921 0.84 5.02671 0.7995H5.02746ZM11.7625 2.2845C10.8925 2.24475 10.6315 2.2365 8.42871 2.2365C6.22596 2.2365 5.96496 2.24475 5.09496 2.2845C4.29021 2.32125 3.85371 2.4555 3.56271 2.56875C3.17796 2.71875 2.90271 2.8965 2.61396 3.18525C2.34024 3.45154 2.1296 3.77571 1.99746 4.134C1.88421 4.425 1.74996 4.8615 1.71321 5.66625C1.67346 6.53625 1.66521 6.79725 1.66521 9C1.66521 11.2028 1.67346 11.4637 1.71321 12.3337C1.74996 13.1385 1.88421 13.575 1.99746 13.866C2.12946 14.2238 2.34021 14.5485 2.61396 14.8148C2.88021 15.0885 3.20496 15.2993 3.56271 15.4313C3.85371 15.5445 4.29021 15.6788 5.09496 15.7155C5.96496 15.7552 6.22521 15.7635 8.42871 15.7635C10.6322 15.7635 10.8925 15.7552 11.7625 15.7155C12.5672 15.6788 13.0037 15.5445 13.2947 15.4313C13.6795 15.2813 13.9547 15.1035 14.2435 14.8148C14.5172 14.5485 14.728 14.2238 14.86 13.866C14.9732 13.575 15.1075 13.1385 15.1442 12.3337C15.184 11.4637 15.1922 11.2028 15.1922 9C15.1922 6.79725 15.184 6.53625 15.1442 5.66625C15.1075 4.8615 14.9732 4.425 14.86 4.134C14.71 3.74925 14.5322 3.474 14.2435 3.18525C13.9772 2.91155 13.653 2.70091 13.2947 2.56875C13.0037 2.4555 12.5672 2.32125 11.7625 2.2845ZM7.37496 11.5433C7.96346 11.7882 8.61874 11.8213 9.22891 11.6368C9.83907 11.4523 10.3663 11.0617 10.7204 10.5317C11.0746 10.0017 11.2338 9.36515 11.1707 8.73083C11.1077 8.0965 10.8265 7.50373 10.375 7.05375C10.0871 6.76611 9.73912 6.54586 9.35596 6.40886C8.9728 6.27186 8.56403 6.22152 8.15908 6.26146C7.75413 6.3014 7.36308 6.43063 7.01406 6.63985C6.66505 6.84906 6.36677 7.13306 6.14069 7.47139C5.91461 7.80972 5.76635 8.19397 5.7066 8.59647C5.64684 8.99897 5.67707 9.40972 5.79512 9.79914C5.91316 10.1886 6.11607 10.547 6.38925 10.8485C6.66243 11.1501 6.99908 11.3874 7.37496 11.5433ZM5.43021 6.0015C5.82398 5.60773 6.29145 5.29538 6.80593 5.08227C7.32042 4.86916 7.87184 4.75948 8.42871 4.75948C8.98558 4.75948 9.537 4.86916 10.0515 5.08227C10.566 5.29538 11.0334 5.60773 11.4272 6.0015C11.821 6.39527 12.1333 6.86274 12.3464 7.37722C12.5595 7.89171 12.6692 8.44313 12.6692 9C12.6692 9.55687 12.5595 10.1083 12.3464 10.6228C12.1333 11.1373 11.821 11.6047 11.4272 11.9985C10.632 12.7938 9.55337 13.2405 8.42871 13.2405C7.30406 13.2405 6.22546 12.7938 5.43021 11.9985C4.63496 11.2032 4.18819 10.1247 4.18819 9C4.18819 7.87534 4.63496 6.79675 5.43021 6.0015ZM13.6097 5.391C13.7073 5.29895 13.7854 5.18826 13.8394 5.06548C13.8935 4.9427 13.9223 4.81033 13.9243 4.6762C13.9262 4.54207 13.9013 4.40891 13.8508 4.28461C13.8004 4.1603 13.7255 4.04738 13.6307 3.95253C13.5358 3.85768 13.4229 3.78282 13.2986 3.73239C13.1743 3.68196 13.0411 3.65698 12.907 3.65894C12.7729 3.66089 12.6405 3.68974 12.5177 3.74377C12.395 3.7978 12.2843 3.87592 12.1922 3.9735C12.0132 4.16327 11.9152 4.41534 11.919 4.6762C11.9228 4.93705 12.0281 5.18616 12.2126 5.37063C12.3971 5.55511 12.6462 5.66042 12.907 5.66422C13.1679 5.66803 13.4199 5.57002 13.6097 5.391Z" fill="white"/>
</svg>
