<svg width="16" height="18" viewBox="0 0 16 18" fill="none" xmlns="http://www.w3.org/2000/svg">
<path d="M9.75335 12.4955V14.615C9.75335 15.0636 9.62277 15.2879 9.36161 15.2879C9.20759 15.2879 9.05692 15.2143 8.9096 15.067V12.0435C9.05692 11.8962 9.20759 11.8225 9.36161 11.8225C9.62277 11.8225 9.75335 12.0469 9.75335 12.4955ZM13.1484 12.5056V12.9676H12.2444V12.5056C12.2444 12.0502 12.3951 11.8225 12.6964 11.8225C12.9978 11.8225 13.1484 12.0502 13.1484 12.5056ZM3.44532 10.3158H4.52009V9.37165H1.38617V10.3158H2.44085V16.0312H3.44532V10.3158ZM6.33817 16.0312H7.23215V11.0692H6.33817V14.8661C6.13728 15.1473 5.94643 15.2879 5.76563 15.2879C5.64509 15.2879 5.57478 15.2176 5.55469 15.077C5.548 15.0569 5.54465 14.9397 5.54465 14.7254V11.0692H4.65067V14.9967C4.65067 15.3248 4.67746 15.5692 4.73103 15.7299C4.81139 15.9777 5.00559 16.1016 5.31362 16.1016C5.63505 16.1016 5.97657 15.8973 6.33817 15.4888V16.0312ZM10.6473 14.5446V12.5658C10.6473 12.077 10.6172 11.7455 10.5569 11.5714C10.4431 11.1964 10.2054 11.0089 9.84375 11.0089C9.50893 11.0089 9.19755 11.1897 8.9096 11.5513V9.37165H8.01563V16.0312H8.9096V15.5491C9.21094 15.9174 9.52233 16.1016 9.84375 16.1016C10.2054 16.1016 10.4431 15.9174 10.5569 15.5491C10.6172 15.3683 10.6473 15.0335 10.6473 14.5446ZM14.0424 14.4442V14.3136H13.1284C13.1284 14.6551 13.1217 14.8594 13.1083 14.9263C13.0614 15.1674 12.9275 15.2879 12.7065 15.2879C12.3984 15.2879 12.2444 15.0569 12.2444 14.5949V13.721H14.0424V12.6864C14.0424 12.1574 13.952 11.769 13.7712 11.5212C13.51 11.1797 13.1551 11.0089 12.7065 11.0089C12.2511 11.0089 11.8929 11.1797 11.6317 11.5212C11.4442 11.769 11.3505 12.1574 11.3505 12.6864V14.4241C11.3505 14.9531 11.4475 15.3415 11.6417 15.5893C11.9029 15.9308 12.2645 16.1016 12.7266 16.1016C13.2087 16.1016 13.5703 15.9241 13.8114 15.5692C13.9319 15.3884 14.0022 15.2076 14.0223 15.0268C14.0357 14.9665 14.0424 14.7723 14.0424 14.4442ZM7.93527 5.27344V3.16406C7.93527 2.70201 7.7913 2.47098 7.50335 2.47098C7.21541 2.47098 7.07143 2.70201 7.07143 3.16406V5.27344C7.07143 5.74219 7.21541 5.97656 7.50335 5.97656C7.7913 5.97656 7.93527 5.74219 7.93527 5.27344ZM15.1574 12.817C15.1574 14.3839 15.0703 15.5558 14.8962 16.3326C14.8025 16.7277 14.6083 17.0592 14.3136 17.327C14.019 17.5949 13.6775 17.7489 13.2891 17.7891C12.0569 17.9297 10.1987 18 7.71429 18C5.22992 18 3.37166 17.9297 2.13951 17.7891C1.75112 17.7489 1.40793 17.5949 1.10994 17.327C0.811946 17.0592 0.619424 16.7277 0.53237 16.3326C0.358263 15.5826 0.27121 14.4107 0.27121 12.817C0.27121 11.25 0.358263 10.0781 0.53237 9.30134C0.62612 8.90625 0.820317 8.57478 1.11496 8.30692C1.4096 8.03906 1.75447 7.8817 2.14956 7.83482C3.375 7.70089 5.22992 7.63393 7.71429 7.63393C10.1987 7.63393 12.0569 7.70089 13.2891 7.83482C13.6775 7.8817 14.0207 8.03906 14.3186 8.30692C14.6166 8.57478 14.8092 8.90625 14.8962 9.30134C15.0703 10.0513 15.1574 11.2232 15.1574 12.817ZM5.13282 0H6.15737L4.94197 4.00781V6.72991H3.9375V4.00781C3.84375 3.51228 3.63951 2.80246 3.32478 1.87835C3.07701 1.18862 2.85938 0.5625 2.67188 0H3.73661L4.44978 2.64174L5.13282 0ZM8.84934 3.34487V5.10268C8.84934 5.64509 8.75559 6.04018 8.56809 6.28795C8.31362 6.62946 7.95871 6.80022 7.50335 6.80022C7.05469 6.80022 6.70313 6.62946 6.44867 6.28795C6.26117 6.03348 6.16742 5.63839 6.16742 5.10268V3.34487C6.16742 2.80915 6.26117 2.41741 6.44867 2.16964C6.70313 1.82812 7.05469 1.65737 7.50335 1.65737C7.95871 1.65737 8.31362 1.82812 8.56809 2.16964C8.75559 2.41741 8.84934 2.80915 8.84934 3.34487ZM12.2143 1.71763V6.72991H11.3002V6.17746C10.9453 6.59263 10.6005 6.80022 10.2656 6.80022C9.95759 6.80022 9.76005 6.67634 9.673 6.42857C9.61942 6.26786 9.59264 6.01674 9.59264 5.67522V1.71763H10.5067V5.40402C10.5067 5.625 10.51 5.74219 10.5167 5.75558C10.5368 5.9029 10.6071 5.97656 10.7277 5.97656C10.9085 5.97656 11.0993 5.83259 11.3002 5.54464V1.71763H12.2143Z" fill="white"/>
</svg>
