<svg width="17" height="17" viewBox="0 0 17 17" fill="none" xmlns="http://www.w3.org/2000/svg">
<path d="M14.4308 11.1202C14.1877 11.1202 13.99 10.9225 13.99 10.6794V7.56563C13.99 5.10725 12.3658 3.02114 10.1342 2.32384C10.2012 2.13701 10.2367 1.93867 10.2367 1.73685C10.2367 0.779164 9.45756 0 8.4998 0C7.54205 0 6.76292 0.779164 6.76292 1.73688C6.76292 1.94027 6.79767 2.13831 6.86431 2.32424C4.63325 3.02187 3.00961 5.10769 3.00961 7.56566V10.6794C3.00961 10.9225 2.81187 11.1203 2.56883 11.1203C1.59686 11.1203 0.806152 11.911 0.806152 12.8829C0.806152 13.8549 1.59686 14.6456 2.56883 14.6456H6.68085C6.64114 14.7988 6.62035 14.9581 6.62035 15.1206C6.62035 16.1569 7.46349 17 8.4998 17C9.53612 17 10.3793 16.1569 10.3793 15.1206C10.3793 14.9581 10.3585 14.7989 10.3187 14.6456H14.4307C15.4027 14.6456 16.1934 13.8549 16.1934 12.8829C16.1935 11.911 15.4027 11.1202 14.4308 11.1202ZM7.76416 1.73688C7.76416 1.33125 8.09417 1.00124 8.4998 1.00124C8.90544 1.00124 9.23545 1.33125 9.23545 1.73688C9.23545 1.86988 9.19947 1.99934 9.13255 2.11215C8.92486 2.08822 8.7138 2.07547 8.4998 2.07547C8.28604 2.07547 8.07521 2.08818 7.86772 2.11208C7.80071 1.99961 7.76416 1.87118 7.76416 1.73688ZM9.37806 15.1205C9.37806 15.6048 8.98407 15.9988 8.49984 15.9988C8.01561 15.9988 7.62162 15.6048 7.62162 15.1205C7.62162 14.9495 7.67041 14.786 7.76102 14.6456H9.23862C9.32926 14.786 9.37806 14.9495 9.37806 15.1205ZM14.4308 13.6443H2.56883C2.14898 13.6443 1.80739 13.3028 1.80739 12.8829C1.80739 12.4631 2.14898 12.1215 2.56883 12.1215C3.36395 12.1215 4.01085 11.4746 4.01085 10.6794V7.56563C4.01085 5.0904 6.02458 3.07667 8.4998 3.07667C10.975 3.07667 12.9888 5.0904 12.9888 7.56563V10.6794C12.9888 11.4746 13.6357 12.1215 14.4308 12.1215C14.8506 12.1215 15.1922 12.4631 15.1922 12.8829C15.1923 13.3028 14.8506 13.6443 14.4308 13.6443Z" fill="black"/>
</svg>
