<svg width="18" height="18" viewBox="0 0 18 18" fill="none" xmlns="http://www.w3.org/2000/svg">
<g clip-path="url(#clip0_245_1010)">
<path d="M9.99442 9.00021L17.7941 1.20053C18.0687 0.925924 18.0687 0.480707 17.7941 0.206137C17.5195 -0.068433 17.0742 -0.0684681 16.7997 0.206137L8.99999 8.00582L1.20035 0.206137C0.925741 -0.0684681 0.480523 -0.0684681 0.205954 0.206137C-0.0686161 0.480742 -0.0686512 0.92596 0.205954 1.20053L8.0056 9.00017L0.205954 16.7999C-0.0686512 17.0745 -0.0686512 17.5197 0.205954 17.7942C0.343239 17.9315 0.523203 18.0002 0.703168 18.0002C0.883132 18.0002 1.06306 17.9315 1.20038 17.7942L8.99999 9.9946L16.7996 17.7942C16.9369 17.9315 17.1169 18.0002 17.2969 18.0002C17.4768 18.0002 17.6567 17.9315 17.7941 17.7942C18.0687 17.5196 18.0687 17.0744 17.7941 16.7999L9.99442 9.00021Z" fill="black"/>
</g>
<defs>
<clipPath id="clip0_245_1010">
<rect width="18" height="18" fill="white"/>
</clipPath>
</defs>
</svg>
