<svg width="43" height="18" viewBox="0 0 43 18" fill="none" xmlns="http://www.w3.org/2000/svg">
<path d="M21.6647 10.72C21.6647 11.908 20.6927 13.084 18.8807 13.084C17.2007 13.084 16.0127 12.148 15.9887 10.768H17.1527C17.2247 11.464 17.7167 12.16 18.8807 12.16C19.9367 12.16 20.5607 11.56 20.5607 10.768C20.5607 8.512 16.0367 9.952 16.0367 6.844C16.0367 5.464 17.1527 4.528 18.8087 4.528C20.4047 4.528 21.4487 5.404 21.5807 6.676H20.3807C20.3087 6.112 19.7807 5.476 18.7607 5.464C17.8607 5.44 17.1527 5.908 17.1527 6.808C17.1527 8.968 21.6647 7.624 21.6647 10.72ZM26.0677 7.24C24.9997 7.24 24.1117 7.948 23.9917 9.232H28.1437C28.1557 7.948 27.1957 7.24 26.0677 7.24ZM29.1397 10.972C28.8037 12.172 27.7477 13.108 26.1157 13.108C24.2437 13.108 22.8637 11.788 22.8637 9.7C22.8637 7.624 24.1957 6.316 26.1157 6.316C28.0237 6.316 29.2717 7.66 29.2717 9.46C29.2717 9.7 29.2597 9.892 29.2357 10.12H23.9797C24.0637 11.452 24.9997 12.184 26.1157 12.184C27.0997 12.184 27.7237 11.68 27.9637 10.972H29.1397ZM30.7131 13V4.12H31.8051V13H30.7131ZM33.6662 13V4.12H34.7582V13H33.6662Z" fill="white"/>
<g clip-path="url(#clip0_183_898)">
<path d="M9.12109 8.12109H5.87891V4.87891C5.87891 4.3935 5.48541 4 5 4C4.51459 4 4.12109 4.3935 4.12109 4.87891V8.12109H0.878906C0.393496 8.12109 0 8.51459 0 9C0 9.48541 0.393496 9.87891 0.878906 9.87891H4.12109V13.1211C4.12109 13.6065 4.51459 14 5 14C5.48541 14 5.87891 13.6065 5.87891 13.1211V9.87891H9.12109C9.6065 9.87891 10 9.48541 10 9C10 8.51459 9.6065 8.12109 9.12109 8.12109Z" fill="white"/>
</g>
<defs>
<clipPath id="clip0_183_898">
<rect width="10" height="10" fill="white" transform="translate(0 4)"/>
</clipPath>
</defs>
</svg>
