<svg width="21" height="19" viewBox="0 0 21 19" fill="none" xmlns="http://www.w3.org/2000/svg">
<path d="M6.08778 7.76704C5.70559 7.76704 5.26878 7.64296 4.94119 7.44937L4.56396 8.30311C4.91141 8.51656 5.49711 8.66048 6.07785 8.66048C7.15496 8.66048 7.696 8.1244 7.696 7.48903C7.696 6.20844 5.77512 6.55589 5.77512 6.13892C5.77512 6.01981 5.8843 5.92051 6.22682 5.92051C6.5296 5.92051 6.85223 6.00488 7.19471 6.17862L7.54711 5.32985C7.18478 5.12637 6.7033 5.02707 6.2367 5.02707C5.15959 5.02707 4.61856 5.55322 4.61856 6.19848C4.61856 7.49395 6.53948 7.14155 6.53948 7.57836C6.53948 7.69756 6.42037 7.76704 6.08778 7.76704Z" fill="#333333"/>
<path d="M9.35869 7.05231L10.1132 8.26838H10.6294L11.3838 6.99767L11.3938 8.58108H12.4609L12.451 5.10657H11.4881L10.3862 6.95797L9.25447 5.10657H8.2915V8.58108H9.35869V7.05231Z" fill="#333333"/>
<path d="M14.58 7.76704C14.1978 7.76704 13.761 7.64296 13.4334 7.44937L13.0562 8.30311C13.4036 8.51656 13.9893 8.66048 14.57 8.66048C15.6471 8.66048 16.1882 8.1244 16.1882 7.48903C16.1882 6.20844 14.2673 6.55589 14.2673 6.13892C14.2673 6.01981 14.3765 5.92051 14.719 5.92051C15.0218 5.92051 15.3444 6.00488 15.6869 6.17862L16.0393 5.32985C15.677 5.12637 15.1955 5.02707 14.7289 5.02707C13.6518 5.02707 13.1107 5.55322 13.1107 6.19848C13.1107 7.49395 15.0317 7.14155 15.0317 7.57836C15.0317 7.69756 14.9126 7.76704 14.58 7.76704Z" fill="#333333"/>
<path d="M0 0.617691V13.5808H3.62098V18.3823L8.27133 13.5808H21V0.617691H0ZM19.7695 12.3503H7.75011L4.85145 15.3432V12.3503H1.23047V1.84816H19.7695V12.3503Z" fill="#333333"/>
</svg>
