<svg width="36" height="27" viewBox="0 0 36 27" fill="none" xmlns="http://www.w3.org/2000/svg">
<path d="M28.4777 4.74654C27.4046 3.61298 25.9778 2.98875 24.4602 2.98875C22.9426 2.98875 21.5159 3.61298 20.4427 4.74654L11.4864 14.207C10.1573 15.6109 10.1573 17.8953 11.4865 19.2995C12.8157 20.7034 14.9784 20.7033 16.3075 19.2993L22.2051 13.0697C22.6488 12.601 22.6488 11.841 22.2051 11.3723C21.7614 10.9035 21.0419 10.9035 20.5981 11.3723L14.7005 17.6018C14.2575 18.0699 13.5366 18.0699 13.0935 17.6019C12.6504 17.1339 12.6504 16.3723 13.0934 15.9044L22.0497 6.44409C22.6936 5.764 23.5497 5.38942 24.4602 5.38942C25.3708 5.38942 26.2268 5.764 26.8707 6.44409C28.1998 7.84812 28.1999 10.1325 26.8708 11.5366L17.1111 21.8455C14.8957 24.1855 11.2912 24.1854 9.07601 21.8455C8.00286 20.712 7.41182 19.2049 7.41182 17.6019C7.41182 15.9989 8.00286 14.4917 9.07601 13.3581L18.8356 3.049C19.2793 2.58024 19.2793 1.82029 18.8356 1.35154C18.3919 0.882861 17.6723 0.882781 17.2286 1.35154L7.46901 11.6607C5.96656 13.2476 5.13916 15.3576 5.13916 17.6019C5.13916 19.8462 5.96656 21.9562 7.46901 23.5431C9.01987 25.1812 11.0563 26.0002 13.0935 26C15.1301 25.9998 17.1675 25.1808 18.7181 23.5431L28.4778 13.2339C30.693 10.8939 30.6929 7.08657 28.4777 4.74654Z" fill="#333333"/>
</svg>
