<svg width="21" height="21" viewBox="0 0 21 21" fill="none" xmlns="http://www.w3.org/2000/svg">
<path d="M17.8398 7.1C18.7564 7.69647 19.5104 8.51133 20.034 9.47135C20.5577 10.4314 20.8346 11.5065 20.8398 12.6V20.5L18.4398 19.3H12.4398C11.2368 19.2856 10.0605 18.9426 9.03827 18.3081C8.01601 17.6736 7.18665 16.7717 6.63984 15.7H9.03984C9.93984 16.7 11.0398 17.2 12.4398 17.2H18.4398L18.8398 17.3V12.6C18.8386 11.405 18.3724 10.2573 17.5398 9.4C17.7398 8.6 17.8398 7.9 17.8398 7.1ZM9.23984 0.5C10.9903 0.5 12.669 1.19536 13.9067 2.4331C15.1445 3.67084 15.8398 5.34957 15.8398 7.1C15.8398 8.85043 15.1445 10.5292 13.9067 11.7669C12.669 13.0046 10.9903 13.7 9.23984 13.7H3.63984L3.23984 13.8L0.839844 15V7.1C0.839844 3.5 3.83984 0.5 7.43984 0.5H9.23984ZM9.23984 2.5H7.43984C6.21985 2.5 5.04982 2.98464 4.18715 3.84731C3.32449 4.70998 2.83984 5.88 2.83984 7.1V11.8H3.13984L3.43984 11.7H9.23984C9.84392 11.7 10.4421 11.581 11.0002 11.3498C11.5583 11.1187 12.0654 10.7798 12.4925 10.3527C12.9197 9.92554 13.2585 9.41844 13.4897 8.86034C13.7209 8.30225 13.8398 7.70408 13.8398 7.1C13.8398 4.6 11.8398 2.5 9.23984 2.5Z" fill="#2BBEF9"/>
</svg>
