<svg width="19" height="19" viewBox="0 0 19 19" fill="none" xmlns="http://www.w3.org/2000/svg">
<g clip-path="url(#clip0_236_3356)">
<path d="M5.04465 13.8997L5.04465 13.8997C7.16233 15.7261 9.25485 16.9663 9.49996 17.1094C9.74437 16.9657 11.8217 15.7256 13.9312 13.8997C15.2351 12.7711 16.2629 11.6651 16.9967 10.6151L17.4885 10.9588L16.9967 10.6151C17.9464 9.25645 18.3928 8.00453 18.3999 6.88667C18.4088 5.48835 17.8683 4.14636 16.9323 3.20449L17.3579 2.78157L16.9323 3.20449C16.0802 2.34698 14.9814 1.88376 13.8378 1.88376C12.2917 1.88376 10.8536 2.75034 10.0161 4.16266L9.50003 5.03296L8.98395 4.16265C8.14646 2.75031 6.70843 1.88376 5.1623 1.88376C3.95251 1.88376 2.81066 2.39589 1.94433 3.34768C1.0906 4.28565 0.608623 5.54022 0.600084 6.88718L5.04465 13.8997ZM5.04465 13.8997C3.73581 12.7709 2.70716 11.6648 1.97616 10.6151L1.97616 10.6151M5.04465 13.8997L1.97616 10.6151M1.97616 10.6151C1.02952 9.25591 0.593053 8.00447 0.600084 6.88721L1.97616 10.6151ZM9.52181 17.1221L9.52158 17.122L9.52181 17.1221Z" stroke="#333333" stroke-width="1.2"/>
</g>
<defs>
<clipPath id="clip0_236_3356">
<rect width="19" height="19" fill="white"/>
</clipPath>
</defs>
</svg>
