<svg width="21" height="21" viewBox="0 0 21 21" fill="none" xmlns="http://www.w3.org/2000/svg">
<path d="M16.8677 18.4781C9.09982 18.135 2.84482 11.88 2.50193 4.11211L6.01686 2.70586L8.16584 7.005L6.50178 7.83703V8.45695C6.50178 11.7771 9.20295 14.478 12.5229 14.478H13.1428L13.4208 13.924L13.9758 12.814L18.2737 14.9641L16.8677 18.4781ZM19.9978 13.5809L13.9758 10.5701L12.6288 11.0201L11.9247 12.427C10.1887 12.1669 8.81389 10.7911 8.55279 9.05508L9.96092 8.35102L10.4095 7.005L7.40014 0.982969L6.12982 0.500156L1.10998 2.50711L0.47998 3.43992C0.47998 12.847 8.13397 20.5001 17.5411 20.5001L18.4729 19.8701L20.4801 14.85L19.9971 13.5799L19.9978 13.5809Z" fill="white"/>
</svg>
