<svg width="21" height="20" viewBox="0 0 21 20" fill="none" xmlns="http://www.w3.org/2000/svg">
<path d="M8.05983 11L9.05984 12V19L8.05983 20H1.05982L0.0598145 19V12L1.05982 11H8.05983ZM15.5599 11C18.0409 11 20.0599 13.0185 20.0599 15.5C20.0599 17.9815 18.0409 20 15.5599 20C13.0789 20 11.0599 17.9815 11.0599 15.5C11.0599 13.0185 13.0789 11 15.5599 11ZM7.06034 13H2.05983V18.0005H7.06034V13ZM15.5599 13C14.1814 13 13.0599 14.1215 13.0599 15.5C13.0599 16.8785 14.1814 18 15.5599 18C16.9384 18 18.06 16.8785 18.06 15.5C18.06 14.1215 16.9384 13 15.5599 13ZM8.05983 0.000198364L9.05984 1.00021V7.9997L8.05983 9.0002H1.05982L0.0598145 7.9997V1.00021L1.05982 0.000198364H8.05983ZM19.0596 0.000198364L20.0596 1.00021V7.9997L19.0596 9.0002H12.0601L11.0596 7.9997V1.00021L12.0601 0.000198364H19.0596ZM7.06034 2.00019H2.05983V7.00018H7.06034V2.00019ZM18.0601 2.00019H13.0601V7.00018H18.0601V2.00019Z" fill="#333333"/>
</svg>
