<svg width="20" height="20" viewBox="0 0 20 20" fill="none" xmlns="http://www.w3.org/2000/svg">
<path d="M17.8516 3.94531H13.938L13.5574 2.80352C13.3177 2.08457 12.6475 1.60156 11.8897 1.60156H8.11027C7.3525 1.60156 6.6823 2.08457 6.44266 2.80352L6.06203 3.94531H5.11719V2.96875C5.11719 2.21488 4.50387 1.60156 3.75 1.60156H2.96875C2.21488 1.60156 1.60156 2.21488 1.60156 2.96875V4.01609C0.680937 4.25859 0 5.09805 0 6.09375V16.25C0 17.4346 0.963789 18.3984 2.14844 18.3984H17.8516C19.0362 18.3984 20 17.4346 20 16.25V6.09375C20 4.9091 19.0362 3.94531 17.8516 3.94531ZM2.77344 2.96875C2.77344 2.86105 2.86105 2.77344 2.96875 2.77344H3.75C3.8577 2.77344 3.94531 2.86105 3.94531 2.96875V3.94531H2.77344V2.96875ZM18.8281 16.25C18.8281 16.7885 18.39 17.2266 17.8516 17.2266H2.14844C1.60996 17.2266 1.17188 16.7885 1.17188 16.25V6.09375C1.17188 5.55527 1.60996 5.11719 2.14844 5.11719H6.48438C6.73656 5.11719 6.96047 4.95582 7.04023 4.71652L7.55437 3.1741C7.6343 2.93445 7.85766 2.77344 8.11027 2.77344H11.8897C12.1423 2.77344 12.3657 2.93445 12.4456 3.17406L12.9597 4.71652C13.0395 4.95582 13.2634 5.11719 13.5156 5.11719H17.8516C18.39 5.11719 18.8281 5.55527 18.8281 6.09375V16.25Z" fill="#858997"/>
<path d="M17.0312 7.46094C17.3549 7.46094 17.6172 7.1986 17.6172 6.875C17.6172 6.5514 17.3549 6.28906 17.0312 6.28906C16.7076 6.28906 16.4453 6.5514 16.4453 6.875C16.4453 7.1986 16.7076 7.46094 17.0312 7.46094Z" fill="#858997"/>
<path d="M4.14062 6.28906H2.96875C2.64516 6.28906 2.38281 6.55141 2.38281 6.875C2.38281 7.19859 2.64516 7.46094 2.96875 7.46094H4.14062C4.46422 7.46094 4.72656 7.19859 4.72656 6.875C4.72656 6.55141 4.46422 6.28906 4.14062 6.28906Z" fill="#858997"/>
<path d="M10 16.0547C7.09223 16.0547 4.72656 13.689 4.72656 10.7812C4.72656 7.87348 7.09223 5.50781 10 5.50781C12.9078 5.50781 15.2734 7.87348 15.2734 10.7812C15.2734 13.689 12.9078 16.0547 10 16.0547ZM10 6.67969C7.7384 6.67969 5.89844 8.51965 5.89844 10.7812C5.89844 13.0429 7.7384 14.8828 10 14.8828C12.2616 14.8828 14.1016 13.0429 14.1016 10.7812C14.1016 8.51965 12.2616 6.67969 10 6.67969Z" fill="#858997"/>
<path d="M10 13.7109C8.38457 13.7109 7.07031 12.3967 7.07031 10.7812C7.07031 9.16582 8.38457 7.85156 10 7.85156C11.6154 7.85156 12.9297 9.16582 12.9297 10.7812C12.9297 12.3967 11.6154 13.7109 10 13.7109ZM10 9.02344C9.03074 9.02344 8.24219 9.81199 8.24219 10.7812C8.24219 11.7505 9.03074 12.5391 10 12.5391C10.9693 12.5391 11.7578 11.7505 11.7578 10.7812C11.7578 9.81199 10.9693 9.02344 10 9.02344Z" fill="#858997"/>
</svg>
